<svg width="32" height="40" viewBox="0 0 32 40" fill="none" xmlns="http://www.w3.org/2000/svg">
<g clip-path="url(#clip0_182_197)">
<path d="M26.6371 21.2423C26.5929 16.2188 30.6663 13.807 30.8506 13.6895C28.5584 10.2745 24.9911 9.80671 23.7185 9.75167C20.6843 9.43895 17.7951 11.5705 16.2571 11.5705C14.7192 11.5705 12.341 9.79671 9.82522 9.84674C6.51344 9.89678 3.46454 11.8056 1.75952 14.8228C-1.67755 20.8946 0.882444 29.8934 4.22861 34.8219C5.8673 37.2311 7.818 39.9455 10.3829 39.8455C12.8545 39.7454 13.788 38.2193 16.7706 38.2193C19.7532 38.2193 20.5934 39.8455 23.205 39.7979C25.8608 39.7454 27.5462 37.3362 29.1726 34.9195C31.0496 32.1225 31.8259 29.4156 31.8701 29.273C31.8112 29.248 26.6912 27.2491 26.6371 21.2423" fill="#B3B3B3"/>
<path d="M21.7308 6.49104C23.0918 4.81235 24.0106 2.47817 23.7576 0.151611C21.7969 0.231755 19.4238 1.48258 18.016 3.16127C16.7557 4.64488 15.6501 7.0215 15.9497 9.30068C18.1363 9.47331 20.3695 8.16726 21.7308 6.49104" fill="#B3B3B3"/>
</g>
<defs>
<clipPath id="clip0_182_197">
<rect width="31.7571" height="39.7273" fill="white" transform="translate(0.121582 0.135986)"/>
</clipPath>
</defs>
</svg>
