<svg width="85" height="38" viewBox="0 0 85 38" fill="none" xmlns="http://www.w3.org/2000/svg">
<path d="M52.3003 30.5718H62.4368V25.895H50.9929V6.56885H45.4736V30.5718H52.3003Z" fill="#6B6C6C"/>
<path d="M74.591 21.4218H79.0905V25.6173C78.2603 25.9367 76.6435 26.2517 75.103 26.2517C70.1328 26.2517 68.4747 23.7164 68.4747 18.5693C68.4747 13.6585 70.0522 10.7667 75.0224 10.7667C77.7875 10.7667 79.3651 11.6373 80.6659 13.2997L84.0999 10.1323C82.0081 7.12238 78.3388 6.2124 74.9069 6.2124C67.1716 6.2124 63.1079 10.4473 63.1079 18.5278C63.1079 26.571 66.7773 30.9284 74.8655 30.9284C78.5741 30.9284 82.2064 29.9769 84.1784 28.59V16.9462H74.591V21.4218Z" fill="#6B6C6C"/>
<path d="M18.7095 37.1364C28.9244 37.1364 37.2044 28.8197 37.2044 18.5693C37.2044 8.31232 28.9244 0 18.7095 0C8.49461 0 0.2146 8.31232 0.2146 18.5693C0.2146 28.8197 8.49461 37.1364 18.7095 37.1364Z" fill="#A51B37"/>
<path d="M17.9753 10.4167V26.6958H23.1264V25.2411H19.444V10.4167H17.9753Z" fill="white"/>
<path d="M12.8046 14.8614C14.0292 14.8614 15.025 13.8617 15.025 12.6367C15.025 11.4096 14.0292 10.4121 12.8046 10.4121C11.5844 10.4121 10.5886 11.4096 10.5886 12.6367C10.5886 13.8617 11.5844 14.8614 12.8046 14.8614Z" fill="white"/>
<path d="M19.4438 3.03193C19.2586 3.02318 18.8904 3.021 18.7095 3.021C10.1789 3.021 3.23462 9.9924 3.23462 18.5628C3.23462 22.7124 4.83615 26.6148 7.75812 29.5482C10.691 32.4881 14.5804 34.1047 18.7095 34.1047C22.8408 34.1047 26.7302 32.4881 29.6587 29.5482C32.5807 26.6148 34.1866 22.7124 34.1866 18.5628V17.8563H33.5678H23.1371V19.3022H32.718V19.51C32.2255 26.838 26.1288 32.65 18.7095 32.65C14.9639 32.65 11.4427 31.1866 8.78876 28.5267C6.13698 25.8645 4.67708 22.3253 4.67708 18.5628C4.67708 14.8026 6.13698 11.2611 8.78876 8.599C11.4427 5.93468 14.9639 4.47128 18.7095 4.47128C18.8795 4.47128 19.276 4.47565 19.4438 4.48003V3.03193Z" fill="white"/>
</svg>
