<svg width="50" height="33" viewBox="0 0 50 33" fill="none" xmlns="http://www.w3.org/2000/svg">
<path d="M49.4693 0.454359H42.7672C42.4802 0.454359 42.2479 0.684062 42.2479 0.967089V31.7383C42.2479 32.0188 42.4802 32.2485 42.7672 32.2485H49.4693C49.7538 32.2485 49.9894 32.0188 49.9894 31.7383V0.967089C49.9894 0.684062 49.7538 0.454359 49.4693 0.454359Z" fill="#FF6700"/>
<path d="M26.5854 0.454845H1.05614C0.769174 0.454845 0.538452 0.684548 0.538452 0.967575V31.7388C0.538452 32.0193 0.769174 32.249 1.05614 32.249H7.75989C8.04523 32.249 8.28166 32.0193 8.28166 31.7388V7.58793C8.28166 7.309 8.51233 7.07768 8.79929 7.07768H23.2397C27.3004 7.07768 28.4532 10.2074 28.4532 12.2263V31.7388C28.4532 32.0193 28.6863 32.249 28.9733 32.249H35.673C35.9583 32.249 36.1922 32.0193 36.1922 31.7388V9.90958C36.1922 8.10888 35.977 5.5198 33.6682 3.24081C31.2527 0.861745 29.0491 0.454845 26.5854 0.454845" fill="#FF6700"/>
<path d="M21.8898 12.711H14.8518C14.5648 12.711 14.3292 12.9407 14.3292 13.222V31.741C14.3292 32.0208 14.5648 32.2505 14.8518 32.2505H21.8898C22.1743 32.2505 22.4074 32.0208 22.4074 31.741V13.222C22.4074 12.9407 22.1743 12.711 21.8898 12.711Z" fill="#FF6700"/>
</svg>
