<svg width="355" height="69" viewBox="0 0 355 69" fill="none" xmlns="http://www.w3.org/2000/svg">
<g clip-path="url(#clip0_2_5359)">
<g clip-path="url(#clip1_2_5359)">
<g clip-path="url(#clip2_2_5359)">
<g clip-path="url(#clip3_2_5359)">
<g clip-path="url(#clip4_2_5359)">
<g clip-path="url(#clip5_2_5359)">
<g clip-path="url(#clip6_2_5359)">
<path d="M106.962 11.2973L109.584 57.8799H99.9044L99.3666 37.916C99.3218 36.9301 99.2994 35.5857 99.2994 33.8828C99.2994 31.6422 99.3666 29.4554 99.5011 27.3223C99.6355 25.1982 99.7924 22.971 99.9716 20.6407L94.7285 49.9481H86.3934L80.6798 20.6407C81.1728 25.7942 81.4192 30.4323 81.4192 34.555L81.352 38.1176L81.0159 57.8799H71.5381L74.1596 11.2973H85.5196L90.6954 41.4113L95.6024 11.2973H106.962ZM137.614 47.7971H123.969L121.549 57.8799H109.987L124.238 11.2973H137.614L151.864 57.8799H140.034L137.614 47.7971ZM125.716 39.8653H135.799L130.758 19.2291L125.716 39.8653ZM152.335 11.2973H164.233L171.223 26.2199L178.402 11.2973H190.045L177.676 32.6729L191.174 57.8799H179.29L171.089 40.1342L163.023 57.8799H151.327L164.502 33.1434L152.335 11.2973ZM229.556 44.2345C229.556 47.1473 228.794 49.7241 227.27 51.9647C225.747 54.2053 223.564 55.9395 220.723 57.1674C217.873 58.4042 214.499 59.0226 210.6 59.0226C202.892 59.0226 196.753 56.782 192.182 52.3008L197.761 46.1166C201.302 49.2535 205.492 50.822 210.331 50.822C212.662 50.822 214.535 50.3156 215.951 49.3028C217.358 48.299 218.061 46.9009 218.061 45.1084C218.061 43.4055 217.47 42.0701 216.287 41.1021C215.095 40.1431 212.886 39.1707 209.659 38.1848C204.192 36.5268 200.316 34.5774 198.03 32.3368C195.745 30.0962 194.602 27.2058 194.602 23.6656C194.602 20.8872 195.377 18.4673 196.928 16.406C198.469 14.3446 200.576 12.7762 203.246 11.7007C205.908 10.6252 208.875 10.0874 212.146 10.0874C219.003 10.0874 224.559 12.104 228.816 16.1371L223.641 22.1196C222.072 20.82 220.383 19.8431 218.572 19.1888C216.753 18.5435 214.88 18.2209 212.953 18.2209C210.802 18.2209 209.112 18.6107 207.885 19.3905C206.648 20.1792 206.029 21.3129 206.029 22.7917C206.029 23.7776 206.312 24.6066 206.876 25.2788C207.432 25.951 208.36 26.5784 209.659 27.161C210.959 27.7435 212.908 28.4381 215.507 29.2447C220.257 30.6787 223.788 32.525 226.101 34.7836C228.404 37.0511 229.556 40.2014 229.556 44.2345ZM257.317 19.7669V57.8799H246.293V19.7669H233.186V11.2973H270.895L269.82 19.7669H257.317ZM298.926 47.7971H285.28L282.86 57.8799H271.299L285.549 11.2973H298.926L313.176 57.8799H301.345L298.926 47.7971ZM287.028 39.8653H297.111L292.069 19.2291L287.028 39.8653ZM350.079 25.4805C350.079 28.6174 349.237 31.2479 347.552 33.372C345.876 35.505 343.626 37.1317 340.803 38.2521L352.969 57.8799H340.467L330.384 40.067H327.292V57.8799H316.268V11.2973H330.922C337.33 11.2973 342.125 12.4625 345.307 14.7927C348.488 17.123 350.079 20.6856 350.079 25.4805ZM338.719 25.4805C338.719 23.2399 338.078 21.6042 336.797 20.5735C335.524 19.5428 333.566 19.0275 330.922 19.0275H327.292V32.4712H331.392C333.812 32.4712 335.636 31.9111 336.864 30.7908C338.101 29.6705 338.719 27.9004 338.719 25.4805Z" fill="white"/>
</g>
</g>
</g>
</g>
<g clip-path="url(#clip7_2_5359)">
<g clip-path="url(#clip8_2_5359)">
<path d="M21.1701 6.35596L1.59546 17.6567V26.4231L21.1701 15.1217L40.744 26.4231V17.6567L21.1701 6.35596Z" fill="white"/>
<path d="M40.4047 62.8277L20.8301 51.527V42.762L40.4047 54.0627L59.9786 42.762V51.527L40.4047 62.8277Z" fill="white"/>
<path d="M1.59546 28.7773L21.1701 17.4758L28.7605 21.8587L9.18664 33.1601V55.763L1.59546 51.3801V28.7773Z" fill="white"/>
<path d="M50.3748 12.0414L30.8002 0.740723L23.209 5.12359L42.7829 16.4243V39.0272L50.3748 34.6443V12.0414Z" fill="white"/>
<path d="M11.2666 57.067L11.2673 34.4649L18.8585 30.082V52.6849L38.4324 63.9856L30.8412 68.3692L11.2666 57.067Z" fill="white"/>
<path d="M59.9788 40.4071V17.8043L52.3876 13.4214V36.0235L32.8137 47.3257L40.4049 51.7093L59.9788 40.4071Z" fill="white"/>
</g>
</g>
</g>
</g>
</g>
<defs>
<clipPath id="clip0_2_5359">
<rect width="353.5" height="67.5185" fill="white" transform="translate(0.535645 0.795654)"/>
</clipPath>
<clipPath id="clip1_2_5359">
<rect width="351.38" height="67.6285" fill="white" transform="translate(1.59546 0.740723)"/>
</clipPath>
<clipPath id="clip2_2_5359">
<rect width="351.38" height="67.6285" fill="white" transform="translate(1.59546 0.740723)"/>
</clipPath>
<clipPath id="clip3_2_5359">
<rect width="281.445" height="48.9352" fill="white" transform="translate(71.5312 10.0874)"/>
</clipPath>
<clipPath id="clip4_2_5359">
<rect width="281.445" height="48.9352" fill="white" transform="translate(71.5312 10.0874)"/>
</clipPath>
<clipPath id="clip5_2_5359">
<rect width="281.445" height="48.9352" fill="white" transform="translate(71.5312 10.0874)"/>
</clipPath>
<clipPath id="clip6_2_5359">
<rect width="281.445" height="48.9352" fill="white" transform="translate(71.5312 10.0874)"/>
</clipPath>
<clipPath id="clip7_2_5359">
<rect width="58.3832" height="67.6285" fill="white" transform="translate(1.59546 0.740723)"/>
</clipPath>
<clipPath id="clip8_2_5359">
<rect width="58.3832" height="67.6285" fill="white" transform="translate(1.59546 0.740723)"/>
</clipPath>
</defs>
</svg>
