<svg width="448" height="87" viewBox="0 0 448 87" fill="none" xmlns="http://www.w3.org/2000/svg">
<g clip-path="url(#clip0_2_5288)">
<g clip-path="url(#clip1_2_5288)">
<g clip-path="url(#clip2_2_5288)">
<g clip-path="url(#clip3_2_5288)">
<g clip-path="url(#clip4_2_5288)">
<g clip-path="url(#clip5_2_5288)">
<g clip-path="url(#clip6_2_5288)">
<path d="M135.245 14.1404L138.562 73.0835H126.314L125.634 47.8221C125.577 46.5747 125.549 44.8736 125.549 42.7188C125.549 39.8837 125.634 37.1166 125.804 34.4175C125.974 31.7297 126.173 28.9116 126.399 25.963L119.765 63.047H109.218L101.989 25.963C102.612 32.4839 102.924 38.3527 102.924 43.5694L102.839 48.0773L102.414 73.0835H90.4211L93.7383 14.1404H108.113L114.662 52.245L120.871 14.1404H135.245ZM174.03 60.3252H156.764L153.702 73.0835H139.073L157.104 14.1404H174.03L192.062 73.0835H177.092L174.03 60.3252ZM158.975 50.2887H171.734L165.355 24.1769L158.975 50.2887ZM192.657 14.1404H207.712L216.558 33.0226L225.642 14.1404H240.373L224.723 41.1878L241.802 73.0835H226.764L216.388 50.6289L206.181 73.0835H191.381L208.052 41.7832L192.657 14.1404ZM290.368 55.8173C290.368 59.503 289.404 62.7635 287.477 65.5986C285.549 68.4338 282.787 70.6282 279.192 72.1819C275.586 73.7469 271.316 74.5294 266.383 74.5294C256.63 74.5294 248.862 71.6942 243.078 66.0239L250.137 58.1988C254.617 62.1681 259.919 64.1527 266.043 64.1527C268.991 64.1527 271.361 63.5119 273.153 62.2304C274.934 60.9603 275.824 59.1912 275.824 56.923C275.824 54.7683 275.076 53.0785 273.579 51.8537C272.07 50.6403 269.275 49.4098 265.192 48.1624C258.274 46.0643 253.369 43.5977 250.478 40.7626C247.586 37.9274 246.14 34.27 246.14 29.7905C246.14 26.2749 247.121 23.2129 249.083 20.6045C251.033 17.9962 253.698 16.0116 257.078 14.6507C260.446 13.2898 264.2 12.6094 268.339 12.6094C277.015 12.6094 284.046 15.161 289.433 20.2643L282.884 27.8342C280.899 26.1898 278.761 24.9537 276.47 24.1258C274.168 23.3093 271.798 22.901 269.36 22.901C266.638 22.901 264.5 23.3943 262.947 24.381C261.382 25.379 260.599 26.8136 260.599 28.6848C260.599 29.9322 260.956 30.9812 261.671 31.8318C262.374 32.6824 263.548 33.4762 265.192 34.2133C266.837 34.9505 269.303 35.8294 272.592 36.85C278.602 38.6646 283.071 41.0007 285.997 43.8586C288.911 46.7278 290.368 50.714 290.368 55.8173ZM325.496 24.8573V73.0835H311.547V24.8573H294.961V14.1404H342.677L341.316 24.8573H325.496ZM378.145 60.3252H360.879L357.817 73.0835H343.188L361.219 14.1404H378.145L396.177 73.0835H381.207L378.145 60.3252ZM363.09 50.2887H375.849L369.47 24.1769L363.09 50.2887ZM442.872 32.087C442.872 36.0562 441.806 39.3847 439.674 42.0724C437.553 44.7715 434.707 46.8298 431.134 48.2474L446.529 73.0835H430.709L417.951 50.5439H414.038V73.0835H400.089V14.1404H418.631C426.74 14.1404 432.807 15.6147 436.833 18.5632C440.859 21.5118 442.872 26.0197 442.872 32.087ZM428.498 32.087C428.498 29.2518 427.687 27.1821 426.065 25.878C424.455 24.5738 421.977 23.9217 418.631 23.9217H414.038V40.9327H419.227C422.289 40.9327 424.596 40.2239 426.15 38.8063C427.715 37.3887 428.498 35.1489 428.498 32.087Z" fill="#2C2C35"/>
</g>
</g>
</g>
</g>
<g clip-path="url(#clip7_2_5288)">
<g clip-path="url(#clip8_2_5288)">
<path d="M26.6886 7.88818L1.91992 22.1875V33.2801L26.6886 18.9799L51.4564 33.2801V22.1875L26.6886 7.88818Z" fill="#E96315"/>
<path d="M51.0272 79.3442L26.2585 65.0449V53.9541L51.0272 68.2534L75.795 53.9541V65.0449L51.0272 79.3442Z" fill="#E96315"/>
<path d="M1.91992 36.2587L26.6886 21.9585L36.2932 27.5043L11.5254 41.8046V70.405L1.91992 64.8592V36.2587Z" fill="#E96315"/>
<path d="M63.6427 15.082L38.874 0.782715L29.2686 6.32856L54.0363 20.6279V49.2283L63.6427 43.6825V15.082Z" fill="#E96315"/>
<path d="M14.1575 72.055L14.1584 43.4555L23.7639 37.9097V66.5101L48.5316 80.8094L38.9262 86.3562L14.1575 72.055Z" fill="#E96315"/>
<path d="M75.7949 50.9744V22.374L66.1894 16.8281V45.4277L41.4216 59.7288L51.0271 65.2756L75.7949 50.9744Z" fill="#E96315"/>
</g>
</g>
</g>
</g>
</g>
<defs>
<clipPath id="clip0_2_5288">
<rect width="447.3" height="85.4343" fill="white" transform="translate(0.578857 0.852539)"/>
</clipPath>
<clipPath id="clip1_2_5288">
<rect width="444.618" height="85.5735" fill="white" transform="translate(1.91992 0.782715)"/>
</clipPath>
<clipPath id="clip2_2_5288">
<rect width="444.618" height="85.5735" fill="white" transform="translate(1.91992 0.782715)"/>
</clipPath>
<clipPath id="clip3_2_5288">
<rect width="356.125" height="61.92" fill="white" transform="translate(90.4128 12.6094)"/>
</clipPath>
<clipPath id="clip4_2_5288">
<rect width="356.125" height="61.92" fill="white" transform="translate(90.4128 12.6094)"/>
</clipPath>
<clipPath id="clip5_2_5288">
<rect width="356.125" height="61.92" fill="white" transform="translate(90.4128 12.6094)"/>
</clipPath>
<clipPath id="clip6_2_5288">
<rect width="356.125" height="61.92" fill="white" transform="translate(90.4128 12.6094)"/>
</clipPath>
<clipPath id="clip7_2_5288">
<rect width="73.875" height="85.5735" fill="white" transform="translate(1.91992 0.782715)"/>
</clipPath>
<clipPath id="clip8_2_5288">
<rect width="73.875" height="85.5735" fill="white" transform="translate(1.91992 0.782715)"/>
</clipPath>
</defs>
</svg>
