<svg xmlns="http://www.w3.org/2000/svg" aria-hidden="true" style="position:absolute;width:0;height:0;overflow:hidden"><defs><symbol id="icon-category_menu" viewBox="0 0 32 32"><path fill="none" stroke="#e96315" stroke-width="1.778" d="M8 16a2.667 2.667 0 1 1-5.334 0A2.667 2.667 0 0 1 8 16zM18.667 16a2.667 2.667 0 1 1-5.334 0 2.667 2.667 0 0 1 5.334 0zM29.333 16a2.667 2.667 0 1 1-5.334 0 2.667 2.667 0 0 1 5.334 0zM8 5.333a2.667 2.667 0 1 1-5.334 0 2.667 2.667 0 0 1 5.334 0zM18.667 5.333a2.667 2.667 0 1 1-5.334 0 2.667 2.667 0 0 1 5.334 0zM29.333 5.333a2.667 2.667 0 1 1-5.334 0 2.667 2.667 0 0 1 5.334 0zM8 26.667a2.667 2.667 0 1 1-5.334 0 2.667 2.667 0 0 1 5.334 0zM18.667 26.667a2.667 2.667 0 1 1-5.334 0 2.667 2.667 0 0 1 5.334 0zM29.333 26.667a2.667 2.667 0 1 1-5.334 0 2.667 2.667 0 0 1 5.334 0z" style="stroke:var(--color1, #e96315)"/></symbol><symbol id="icon-arrow_down" viewBox="0 0 32 32"><path stroke-linecap="round" stroke-width="2.667" d="m9.651 13.714 6.552 4.914a1.777 1.777 0 0 0 2.133 0l6.552-4.914"/></symbol><symbol id="icon-cart" viewBox="0 0 32 32"><path d="M17.333 27.333a2 2 0 1 1-3.999.001 2 2 0 0 1 3.999-.001zM25.333 27.333a2 2 0 1 1-3.999.001 2 2 0 0 1 3.999-.001z"/><path fill="none" stroke="#212121" stroke-linecap="round" stroke-width="1.6" d="M5.333 12H4M6.667 20H5.334M6.667 16h-4M9.016 8.667l2.846 12.749a1.6 1.6 0 0 0 1.562 1.251h11.502a1.6 1.6 0 0 0 1.561-1.251l2.411-10.8a1.6 1.6 0 0 0-1.561-1.949H9.016zm0 0L8.067 5.18A1.6 1.6 0 0 0 6.523 4H2.666" style="stroke:var(--color2, #212121)"/></symbol><symbol id="icon-search" viewBox="0 0 32 32"><path stroke-linecap="round" stroke-width="2" d="m26.667 26.667-5.926-5.926"/><path stroke-width="2" d="M23.111 14.222a8.89 8.89 0 1 1-17.779 0 8.89 8.89 0 0 1 17.779 0z"/></symbol><symbol id="icon-heart" viewBox="0 0 32 32"><path stroke-linecap="round" stroke-width="1.6" d="M25.333 11.702a5.935 5.935 0 0 0-1.527-2.485C23.21 8.626 22.591 8.236 21.97 8m-8.104-2.472c-2.232-1.416-5.835-2.754-8.948.42C-2.47 13.482 10.2 28 16 28S34.47 13.482 27.082 5.948c-3.112-3.174-6.716-1.835-8.948-.42-1.261.8-3.008.8-4.268 0z"/></symbol><symbol id="icon-right_arrow" viewBox="0 0 32 32"><path d="M5.333 15.6a.667.667 0 0 0 0 1.334v-1.333zm16.47-6.473a.668.668 0 0 0-.939.947l.939-.947zm1.881 2.803zm0 8.674zm-2.82 1.856a.668.668 0 0 0 .939.947l-.939-.947zm5.776-6.611zm0 .836zm-21.307.249h21.333v-1.333H5.333v1.333zm15.531-6.86 2.351 2.33.939-.947-2.351-2.33-.939.947zm2.351 10.056-2.351 2.33.939.947 2.351-2.33-.939-.947zm0-7.727c.948.94 1.619 1.606 2.076 2.176.449.559.637.96.688 1.354l1.323-.169c-.094-.738-.446-1.368-.971-2.021-.516-.642-1.251-1.37-2.177-2.288l-.939.947zm.938 8.674c.926-.918 1.662-1.645 2.177-2.288.524-.653.877-1.282.971-2.021l-1.323-.169c-.05.394-.239.795-.688 1.354-.457.57-1.128 1.236-2.076 2.176l.939.947zm1.826-5.144c.014.111.021.222.021.333h1.333c0-.168-.011-.335-.032-.502l-1.323.169zm.021.334c0 .111-.007.223-.021.333l1.323.169c.021-.167.032-.334.032-.502h-1.333z"/></symbol><symbol id="icon-refresh" viewBox="0 0 32 32"><path d="M1.667 16a1 1 0 0 0 2 0h-2zm28.666 0a1 1 0 0 0-2 0h2zM6.627 24.016a1 1 0 0 0-1.519 1.301l1.519-1.301zM25.373 7.984a1 1 0 1 0 1.519-1.301l-1.519 1.301zm3.168-6.655a1 1 0 0 0-2 .008l2-.009zm-.988 2.652zm-4.906 4.907zm-2.644-1.012a1 1 0 0 0-.009 2l.009-2zm7.005-.006zm-.472.473zM3.349 30.564a1 1 0 1 0 2-.009l-2 .009zm.988-2.652zm4.907-4.907zm2.643 1.012a.999.999 0 1 0 .008-2l-.009 2zm-7.005.006zm.473-.473zM16 1.667C8.084 1.667 1.667 8.084 1.667 16h2C3.667 9.189 9.189 3.667 16 3.667v-2zm0 28.666c7.916 0 14.333-6.417 14.333-14.333h-2c0 6.811-5.522 12.333-12.333 12.333v2zM5.108 25.317A14.302 14.302 0 0 0 16 30.333v-2c-3.751 0-7.11-1.673-9.373-4.317l-1.519 1.301zM26.892 6.683A14.302 14.302 0 0 0 16 1.667v2c3.751 0 7.11 1.673 9.373 4.317l1.519-1.301zm-.351-5.345.012 2.648 2-.009-.012-2.648-2 .009zm-3.89 6.55-2.648-.012-.009 2 2.648.012.009-2zm3.902-3.903c.005 1.079.007 1.804-.053 2.353-.058.528-.162.765-.282.92L27.8 8.482c.439-.567.611-1.219.689-1.927.075-.688.07-1.546.065-2.579l-2 .009zm-3.911 5.903c1.032.005 1.891.01 2.579-.065.708-.077 1.36-.25 1.927-.689l-1.224-1.582c-.155.12-.392.225-.92.282-.549.06-1.273.058-2.353.053l-.009 2zm3.576-2.63c-.085.11-.184.209-.294.294l1.224 1.582c.244-.189.463-.408.651-.651l-1.582-1.224zM5.349 30.555l-.012-2.648-2 .009.012 2.648 2-.009zm3.891-6.55 2.648.012.009-2-2.648-.012-.009 2zm-3.903 3.902c-.005-1.079-.007-1.804.053-2.353.058-.528.162-.765.282-.92L4.09 23.41c-.439.567-.611 1.219-.689 1.927-.075.688-.07 1.547-.065 2.579l2-.009zm3.911-5.902c-1.032-.005-1.891-.01-2.579.065-.708.077-1.36.25-1.927.689l1.224 1.582c.155-.12.392-.224.92-.282.548-.06 1.273-.058 2.353-.053l.009-2zm-3.575 2.63c.085-.11.184-.209.294-.294l-1.224-1.582a3.647 3.647 0 0 0-.651.651l1.582 1.224z"/></symbol><symbol id="icon-price" viewBox="0 0 32 32"><path d="M16.023 2.718a3.02 3.02 0 0 1 .664-.056c3.479.002 6.957-.001 10.436.002a2.187 2.187 0 0 1 1.541.608 2.19 2.19 0 0 1 .668 1.604v10.56a2.23 2.23 0 0 1-.689 1.647c-3.967 3.97-7.937 7.937-11.905 11.906-.295.294-.58.615-.964.795-.814.415-1.875.232-2.507-.427L2.954 19.044c-.228-.231-.477-.449-.646-.73a2.18 2.18 0 0 1-.07-2.144c.181-.361.49-.629.77-.911L14.914 3.353a2.245 2.245 0 0 1 1.108-.635zm.249 1.312c-.162.043-.297.15-.416.264-3.977 3.981-7.959 7.958-11.938 11.937-.201.213-.457.398-.556.685a.844.844 0 0 0 .221.872L14.21 28.415a.84.84 0 0 0 1.206.004L27.73 16.105a.874.874 0 0 0 .269-.663c-.002-3.524-.001-7.048-.001-10.571a.854.854 0 0 0-.464-.784c-.243-.123-.524-.084-.786-.091-3.398.002-6.794.001-10.191.001a1.141 1.141 0 0 0-.286.033z"/><path d="M22.709 6.153a2.665 2.665 0 0 1 2.807 3.987 2.664 2.664 0 0 1-1.927 1.268 2.683 2.683 0 0 1-2.239-.758c-.857-.828-1.032-2.251-.397-3.261a2.674 2.674 0 0 1 1.756-1.236zm.248 1.309a1.336 1.336 0 0 0-1.052 1.226 1.33 1.33 0 0 0 2.255 1.036c.321-.306.469-.777.383-1.213-.121-.711-.884-1.218-1.586-1.049z"/></symbol><symbol id="icon-instagram" viewBox="0 0 32 32"><path fill="#c91ecc" d="M16 0c8.837 0 16 7.163 16 16s-7.163 16-16 16S0 24.837 0 16 7.163 0 16 0z" style="fill:var(--color3, #c91ecc)"/><path fill="#fff" d="M12.668 16a3.334 3.334 0 1 1 6.667 0 3.334 3.334 0 0 1-6.667 0zm-1.802 0a5.135 5.135 0 1 0 10.27 0 5.135 5.135 0 0 0-10.27 0zm9.273-5.338a1.202 1.202 0 0 0 1.433 1.178 1.201 1.201 0 0 0 .876-1.635 1.2 1.2 0 0 0-1.109-.741 1.203 1.203 0 0 0-1.2 1.199zM11.96 24.14c-.975-.044-1.505-.207-1.857-.344-.467-.182-.8-.398-1.15-.748s-.567-.683-.748-1.149c-.137-.352-.3-.882-.344-1.857-.048-1.054-.058-1.371-.058-4.041s.01-2.986.058-4.041c.044-.975.208-1.504.344-1.857.182-.467.398-.8.748-1.15s.683-.567 1.15-.748c.352-.137.882-.3 1.857-.344 1.054-.048 1.371-.058 4.04-.058s2.986.011 4.041.058c.975.044 1.504.208 1.857.344.467.181.8.398 1.15.748s.566.683.748 1.15c.137.352.3.882.344 1.857.049 1.055.058 1.371.058 4.041s-.01 2.986-.058 4.041c-.044.975-.208 1.505-.344 1.857-.182.467-.398.8-.748 1.149s-.683.566-1.15.748c-.352.137-.882.3-1.857.344-1.054.048-1.371.058-4.041.058s-2.986-.01-4.04-.058zm-.082-18.079c-1.065.048-1.792.217-2.427.464-.658.255-1.215.598-1.771 1.153s-.898 1.113-1.153 1.771c-.247.636-.416 1.363-.464 2.427-.049 1.066-.061 1.407-.061 4.123s.011 3.057.061 4.123c.048 1.065.217 1.792.464 2.427.255.657.597 1.216 1.153 1.771s1.114.897 1.771 1.153c.637.247 1.363.416 2.427.465 1.067.048 1.407.061 4.123.061s3.057-.011 4.123-.061c1.065-.049 1.792-.217 2.427-.465.658-.256 1.215-.598 1.771-1.153s.897-1.114 1.153-1.771c.247-.636.417-1.363.464-2.427.049-1.067.06-1.407.06-4.123s-.011-3.057-.06-4.123c-.048-1.065-.217-1.792-.464-2.427-.256-.657-.598-1.215-1.153-1.771s-1.114-.898-1.771-1.153c-.637-.247-1.363-.417-2.427-.464C19.058 6.013 18.717 6 16.001 6s-3.057.011-4.124.061z" style="fill:var(--color4, #fff)"/></symbol><symbol xmlns="http://www.w3.org/2000/svg" fill="none" viewBox="0 0 34 34" id="icon-telegram"><rect width="34" height="34" fill="#419FD9" rx="17"></rect><rect width="34" height="34" fill="url(#a)" rx="17"></rect><path fill="#fff" d="M7.641 16.626c4.944-2.2 8.24-3.65 9.89-4.35 4.71-2 5.688-2.347 6.326-2.359.14-.002.454.033.657.201.171.143.219.335.241.47.023.134.05.441.029.681-.256 2.738-1.36 9.382-1.922 12.448-.237 1.298-.706 1.733-1.159 1.776-.985.092-1.732-.665-2.686-1.303-1.493-1-2.336-1.621-3.785-2.596-1.674-1.126-.589-1.746.366-2.758.25-.264 4.588-4.294 4.672-4.66.01-.045.02-.216-.079-.306s-.245-.059-.35-.034c-.15.034-2.535 1.643-7.154 4.827-.677.474-1.29.706-1.839.694-.605-.014-1.77-.35-2.636-.637-1.062-.353-1.906-.54-1.833-1.138.039-.312.46-.63 1.262-.956Z"></path></symbol><symbol id="icon-youtube" viewBox="0 0 32 32"><path fill="red" d="M16 0c8.837 0 16 7.163 16 16s-7.163 16-16 16S0 24.837 0 16 7.163 0 16 0z" style="fill:var(--color7, #f00)"/><path fill="#fff" d="M23.825 9.427C22.26 8.999 16 8.999 16 8.999s-6.26 0-7.825.412a2.56 2.56 0 0 0-1.763 1.779C6 12.755 6 16.001 6 16.001s0 3.262.412 4.81a2.507 2.507 0 0 0 1.763 1.763c1.582.428 7.825.428 7.825.428s6.26 0 7.825-.412a2.507 2.507 0 0 0 1.763-1.763C26 19.262 26 16.016 26 16.016s.016-3.262-.412-4.827a2.507 2.507 0 0 0-1.763-1.763zM19.212 16l-5.206 2.998v-5.997l5.206 2.998z" style="fill:var(--color4, #fff)"/></symbol><symbol id="icon-facebook" viewBox="0 0 32 32"><path fill="#4267b2" d="M16 0c8.837 0 16 7.163 16 16s-7.163 16-16 16S0 24.837 0 16 7.163 0 16 0z" style="fill:var(--color8, #4267b2)"/><path fill="#fff" d="M17.068 26.667v-9.731h3.266l.489-3.792h-3.755v-2.421c0-1.098.305-1.846 1.88-1.846l2.008-.001V5.484c-.347-.046-1.54-.149-2.926-.149-2.895 0-4.878 1.767-4.878 5.013v2.797H9.877v3.792h3.275v9.731h3.916z" style="fill:var(--color4, #fff)"/></symbol><symbol id="icon-footer-logo" viewBox="0 0 32 32"><path d="m9.624 13.903.237 4.211h-.875l-.049-1.805a9.541 9.541 0 0 1 .012-.958c.012-.193.026-.393.043-.604l-.474 2.649h-.753l-.516-2.649c.045.466.067.885.067 1.258l-.006.322-.03 1.786h-.857l.237-4.211h1.027l.468 2.722.444-2.722h1.027zm2.771 3.299h-1.233l-.219.911H9.898l1.288-4.211h1.209l1.288 4.211h-1.069l-.219-.911zm-1.076-.717h.911l-.456-1.865-.456 1.865zm2.406-2.582H14.8l.632 1.349.649-1.349h1.052l-1.118 1.932 1.22 2.278h-1.074l-.741-1.604-.729 1.604h-1.057l1.191-2.236-1.1-1.975zm6.98 2.977c0 .263-.069.496-.207.699s-.335.359-.592.47a2.285 2.285 0 0 1-.915.168c-.697 0-1.252-.203-1.665-.608l.504-.559c.32.284.699.425 1.136.425.211 0 .38-.046.508-.137s.191-.217.191-.379c0-.154-.053-.275-.16-.362s-.307-.175-.599-.264c-.494-.15-.845-.326-1.051-.529s-.31-.464-.31-.784c0-.251.07-.47.21-.656s.33-.328.571-.425c.241-.097.509-.146.804-.146.62 0 1.122.182 1.507.547l-.468.541a1.492 1.492 0 0 0-.966-.353c-.194 0-.347.035-.458.106s-.168.174-.168.307c0 .089.026.164.077.225s.134.117.252.17c.117.053.294.115.529.188.429.13.749.296.958.501s.312.49.312.854zm2.51-2.212v3.445h-.996v-3.445h-1.185v-.766h3.409l-.097.766h-1.13zm3.76 2.534h-1.233l-.219.911h-1.045l1.288-4.211h1.209l1.288 4.211h-1.069l-.219-.911zm-1.075-.717h.911l-.456-1.865-.456 1.865zm5.699-1.3c0 .284-.076.521-.228.713s-.355.34-.61.441l1.1 1.774h-1.13l-.911-1.61h-.279v1.61h-.996v-4.211h1.325c.579 0 1.013.105 1.3.316s.431.533.431.966zm-1.027 0c0-.203-.058-.35-.174-.444s-.292-.14-.531-.14h-.328v1.215h.371c.219 0 .384-.051.495-.152s.168-.261.168-.48zM1.87 13.456.101 14.477v.792l1.769-1.022 1.769 1.022v-.792L1.87 13.456zM3.608 18.561 1.839 17.54v-.792l1.769 1.021 1.769-1.021v.792l-1.769 1.021z"/><path d="m.1 15.483 1.769-1.022.686.396-1.769 1.022v2.043L.1 17.526v-2.043zM4.509 13.97 2.74 12.949l-.686.396 1.769 1.021v2.043l.686-.396V13.97z"/><path d="M.974 18.04v-2.043l.686-.396v2.043l1.769 1.021-.686.396-1.769-1.022zM5.377 16.534v-2.043l-.686-.396v2.043L2.922 17.16l.686.396 1.769-1.022z"/></symbol><symbol id="icon-header-logo" viewBox="0 0 32 32"><path fill="#2c2c35" d="m9.66 13.903.237 4.21h-.875l-.049-1.804a9.541 9.541 0 0 1 .012-.958c.012-.193.026-.393.043-.604l-.474 2.649h-.753l-.516-2.649c.045.466.067.885.067 1.258l-.006.322-.03 1.786h-.857l.237-4.21h1.027l.468 2.722.444-2.722h1.027zm2.771 3.299h-1.233l-.219.911H9.934l1.288-4.21h1.209l1.288 4.21H12.65l-.219-.911zm-1.076-.717h.911l-.456-1.865-.456 1.865zm2.406-2.582h1.075l.632 1.349.649-1.349h1.052l-1.118 1.932 1.22 2.278h-1.074l-.741-1.604-.729 1.604H13.67l1.191-2.236-1.1-1.974zm6.98 2.977c0 .263-.069.496-.206.699s-.335.359-.592.47a2.285 2.285 0 0 1-.915.168c-.697 0-1.252-.203-1.665-.608l.504-.559c.32.284.699.425 1.136.425.211 0 .38-.046.508-.137s.191-.217.191-.379c0-.154-.053-.275-.16-.362s-.307-.175-.599-.264c-.494-.15-.845-.326-1.051-.529s-.31-.464-.31-.784c0-.251.07-.47.21-.656s.33-.328.571-.425c.241-.097.509-.146.804-.146.62 0 1.122.182 1.507.547l-.468.541a1.492 1.492 0 0 0-.966-.353c-.194 0-.347.035-.458.106s-.168.174-.168.307c0 .089.026.164.077.225s.134.117.252.17c.117.053.294.115.529.188.429.13.748.296.957.501s.312.49.312.854zm2.509-2.212v3.445h-.996v-3.445h-1.185v-.765h3.408l-.097.765h-1.13zm3.76 2.534h-1.233l-.219.911h-1.045l1.288-4.21h1.209l1.288 4.21h-1.069l-.219-.911zm-1.075-.717h.911l-.456-1.865-.456 1.865zm5.699-1.3c0 .284-.076.521-.228.713s-.355.34-.61.441l1.1 1.774h-1.13l-.911-1.61h-.279v1.61h-.996v-4.21h1.324c.579 0 1.013.105 1.3.316s.431.533.431.966zm-1.027 0c0-.203-.058-.35-.174-.444s-.292-.14-.531-.14h-.328v1.215h.371c.219 0 .384-.051.494-.152s.168-.261.168-.48z" style="fill:var(--color9, #2c2c35)"/><path fill="#e96315" d="M1.906 13.456.137 14.477v.792l1.769-1.021 1.769 1.021v-.792l-1.769-1.021zM3.645 18.56l-1.769-1.021v-.792l1.769 1.021 1.769-1.021v.792L3.645 18.56z" style="fill:var(--color1, #e96315)"/><path fill="#e96315" d="m.137 15.483 1.769-1.021.686.396-1.769 1.021v2.043l-.686-.396v-2.043zM4.546 13.97l-1.769-1.021-.686.396 1.769 1.021v2.043l.686-.396V13.97z" style="fill:var(--color1, #e96315)"/><path fill="#e96315" d="M1.011 18.04v-2.043l.686-.396v2.043l1.769 1.021-.686.396-1.769-1.021zM5.414 16.534v-2.043l-.686-.396v2.043l-1.769 1.021.686.396 1.769-1.021z" style="fill:var(--color1, #e96315)"/></symbol><symbol id="icon-facebook-mini" viewBox="0 0 32 32"><path fill="#0056bb" d="M16.995 26.182v-9.545h4.134l.689-4.091h-4.823v-2.045c0-1.364.69-2.045 2.067-2.045h2.067V4.365h-3.445c-3.445 0-4.823 2.045-4.823 5.455v2.727H8.727v4.091h4.134v9.545h4.134z" style="fill:var(--color10, #0056bb)"/></symbol><symbol id="icon-telegram-mini" viewBox="0 0 32 32"><path fill="#3292d8" d="M23.414 8.913c.31 0 .724-.095 1.034.095.31.095.517.474.414.758-.103 1.042-.207 2.084-.414 3.127-.517 3.506-1.241 7.011-1.862 10.517 0 .284-.103.569-.31.758a1.743 1.743 0 0 1-1.862.663c-.31-.095-.517-.19-.724-.379-2.172-1.327-4.344-2.653-6.516-4.074-.31-.189-.414-.663-.414-.948.103-.474.517-.948.931-1.232 1.758-1.611 3.724-3.032 5.378-4.643a.696.696 0 0 0 .207-.474c0-.095-.207-.095-.31-.095-.414.095-.724.379-1.138.569-2.379 1.516-4.654 3.032-7.137 4.453-.414.19-.724.474-1.241.569-.724.19-1.448.095-2.069-.095-.517-.095-1.034-.284-1.448-.379-.31-.095-.724-.284-1.034-.379s-.724-.284-1.034-.474c-.207-.095-.31-.284-.31-.474s.207-.284.414-.379c1.655-.758 3.31-1.516 4.965-2.179s3.31-1.326 4.861-1.895a613.756 613.756 0 0 1 7.654-2.842c.724-.19 1.345-.474 1.965-.569z" style="fill:var(--color11, #3292d8)"/></symbol><symbol id="icon-viber-mini" viewBox="0 0 32 32"><path fill="#7b32d8" d="M14.8 7.138c.673-.043 1.347-.027 2.021-.007.915.027 1.831.129 2.726.33.835.188 1.657.471 2.41.89a4.48 4.48 0 0 1 1.441 1.226c.518.684.847 1.496 1.073 2.323.378 1.441.456 2.948.402 4.434a27.483 27.483 0 0 1-.166 2.106c-.116.991-.382 1.975-.881 2.839a5.155 5.155 0 0 1-1.209 1.423 5.26 5.26 0 0 1-1.221.735c-.498.213-1.021.344-1.541.485-1.305.313-2.652.434-3.991.424a17.802 17.802 0 0 1-1.325-.064c-.436.52-.875 1.036-1.319 1.547-.166.184-.318.385-.5.553-.152.137-.33.262-.536.28-.238.025-.496-.082-.616-.301-.162-.291-.168-.635-.164-.958-.004-.553.014-1.105.008-1.658.002-.037-.032-.059-.062-.065a5.592 5.592 0 0 1-2.025-1.081 5.307 5.307 0 0 1-1.201-1.494c-.454-.825-.712-1.748-.851-2.677a9.234 9.234 0 0 1-.086-.741c-.02-.301-.052-.6-.056-.901a30.21 30.21 0 0 0-.02-.737c.008-1.032.028-2.065.186-3.085.114-.755.302-1.5.608-2.198.246-.559.57-1.085.979-1.535.17-.19.366-.352.568-.504.718-.532 1.551-.874 2.4-1.12a13.707 13.707 0 0 1 2.948-.47zm-1.759 1.607c-.775.166-1.543.413-2.233.819-.364.221-.714.479-.985.813-.438.526-.748 1.156-.945 1.816-.274.903-.368 1.85-.398 2.792-.022 1.204-.062 2.422.176 3.607.136.692.368 1.371.742 1.967a4.184 4.184 0 0 0 1.577 1.476c.304.166.63.285.959.387.012.25.002.502.004.751.004.825-.022 1.652-.008 2.477.002.1-.006.207.044.297.011.026.03.049.053.065s.051.025.079.025c.082 0 .154-.053.212-.108.082-.08.158-.168.232-.252.742-.854 1.443-1.744 2.159-2.622.044-.051.08-.115.136-.154.084-.004.168.006.252.01 1.591.07 3.2-.07 4.739-.497.286-.074.572-.147.846-.26a3.953 3.953 0 0 0 1.469-1.013c.46-.504.776-1.128.979-1.781.22-.702.294-1.441.354-2.172.069-.793.087-1.591.056-2.387-.05-.997-.178-2-.504-2.943-.218-.626-.522-1.238-.985-1.711-.246-.258-.546-.452-.855-.62a8.232 8.232 0 0 0-2.049-.727 13.536 13.536 0 0 0-2.802-.295c-1.105-.047-2.219.017-3.302.242z" style="fill:var(--color12, #7b32d8)"/><path fill="#7b32d8" d="M15.827 10.611c.244-.014.49.012.732.041a4.806 4.806 0 0 1 2.073.776 4.593 4.593 0 0 1 1.455 1.621c.46.849.672 1.828.683 2.794-.002.076.01.158-.034.225-.08.127-.276.151-.382.045-.068-.063-.07-.162-.072-.248-.01-.858-.184-1.724-.576-2.485a4.063 4.063 0 0 0-1.419-1.576 4.466 4.466 0 0 0-2.327-.688c-.086-.004-.188.002-.254-.068-.132-.131-.072-.413.12-.438zM12.549 11.185a.641.641 0 0 1 .638.231c.35.44.702.878.983 1.367.11.197.246.381.31.6.07.266.018.581-.18.778-.154.143-.324.268-.482.407-.15.129-.206.344-.18.536.022.119.07.229.112.34a5.116 5.116 0 0 0 1.191 1.85 4.038 4.038 0 0 0 1.687.989.566.566 0 0 0 .58-.18c.132-.166.252-.342.39-.502.154-.174.398-.237.622-.211.152.014.292.09.42.17.508.319 1.003.667 1.449 1.075.128.123.278.237.334.415.09.244.006.512-.118.725-.188.315-.414.61-.689.852-.24.205-.534.375-.855.375-.214.01-.408-.09-.604-.162-.732-.293-1.421-.68-2.091-1.093a11.426 11.426 0 0 1-1.747-1.302c-1.017-.935-1.813-2.1-2.432-3.343-.3-.583-.586-1.179-.797-1.803a1.164 1.164 0 0 1 .05-.841c.178-.399.492-.712.833-.968.176-.127.362-.258.578-.305z" style="fill:var(--color12, #7b32d8)"/><path fill="#7b32d8" d="M16.207 11.899c.088-.023.182-.002.272.004.712.078 1.419.34 1.963.827.418.366.727.858.899 1.392.143.435.202.895.174 1.353-.01.182-.254.256-.382.149-.094-.063-.098-.19-.096-.293.008-.723-.218-1.466-.7-2.006-.476-.53-1.157-.829-1.849-.911-.112-.018-.234-.008-.336-.063-.158-.103-.126-.393.054-.452z" style="fill:var(--color12, #7b32d8)"/><path fill="#7b32d8" d="M16.567 13.228c.086-.027.178-.008.266 0 .37.045.744.186 1.009.465.332.35.468.854.468 1.333.004.113-.092.203-.194.221-.114.026-.246-.041-.274-.162s-.02-.246-.044-.366c-.05-.301-.184-.606-.438-.78-.226-.164-.508-.197-.776-.229-.222-.041-.23-.418-.018-.481z" style="fill:var(--color12, #7b32d8)"/></symbol><symbol id="icon-whatsapp-mini" viewBox="0 0 32 32"><path fill="#0e972c" d="M14.105 7.348a8.927 8.927 0 0 1 3.522-.116 8.432 8.432 0 0 1 3.966 1.777 8.971 8.971 0 0 1 1.448 1.441c.429.54.789 1.133 1.07 1.763.324.732.551 1.503.677 2.294.074.525.119 1.058.093 1.59a8.734 8.734 0 0 1-.542 2.728 8.652 8.652 0 0 1-2.376 3.436 9.02 9.02 0 0 1-1.77 1.211 8.584 8.584 0 0 1-2.626.866 8.966 8.966 0 0 1-3.45-.117 8.073 8.073 0 0 1-1.962-.723c-.071-.035-.14-.082-.222-.091a.482.482 0 0 0-.216.035c-1.433.457-2.866.911-4.3 1.362-.103.024-.196.089-.304.082a.234.234 0 0 1 .019-.125c.498-1.457.984-2.92 1.487-4.38a.272.272 0 0 0-.034-.25 8.318 8.318 0 0 1-.869-2.054 8.792 8.792 0 0 1-.304-2.767 8.701 8.701 0 0 1 1.487-4.376 8.814 8.814 0 0 1 2.924-2.685 8.93 8.93 0 0 1 2.281-.904zm1.335 1.258c-.343.035-.688.08-1.021.175-.932.244-1.83.639-2.609 1.208-.51.373-.965.813-1.355 1.31a8.023 8.023 0 0 0-1.014 1.705 6.716 6.716 0 0 0-.559 2.272c-.055.884.049 1.77.307 2.616.216.701.541 1.364.962 1.964.043.061.082.13.08.209-.004.089-.045.171-.071.257l-.44 1.295c-.114.322-.212.649-.332.969-.011.026 0 .052.004.078.063.017.119-.026.179-.043.675-.214 1.349-.425 2.022-.647.134-.041.263-.095.401-.125a.525.525 0 0 1 .378.089c.762.455 1.599.79 2.473.951 1.243.233 2.538.099 3.729-.308a6.94 6.94 0 0 0 2.57-1.566 7.477 7.477 0 0 0 1.694-2.406 7.238 7.238 0 0 0 .552-3.449 7.212 7.212 0 0 0-1.437-3.718 7.384 7.384 0 0 0-2.967-2.307 7.082 7.082 0 0 0-2.484-.55c-.354-.009-.71-.019-1.062.019z" style="fill:var(--color13, #0e972c)"/><path fill="#0e972c" d="M13.099 11.541c.179-.03.354.037.533.022a.468.468 0 0 1 .259.041c.11.056.183.164.226.276.209.544.412 1.09.619 1.636.037.112.101.222.091.343-.006.099-.058.184-.104.268a2.866 2.866 0 0 1-.453.554c-.078.084-.17.158-.222.263-.045.093.004.194.048.276a6.513 6.513 0 0 0 1.128 1.519c.42.416.904.763 1.433 1.027.116.06.239.104.349.173a.494.494 0 0 0 .261.08.332.332 0 0 0 .216-.103c.263-.261.503-.542.736-.829.06-.069.121-.145.209-.177.097-.032.196.011.285.048.596.272 1.167.596 1.744.904a.428.428 0 0 1 .192.162.538.538 0 0 1 .041.291 1.835 1.835 0 0 1-.308.915 1.857 1.857 0 0 1-.695.591 3.033 3.033 0 0 1-.898.278 1.852 1.852 0 0 1-.643-.013c-.188-.035-.369-.102-.55-.16-.701-.229-1.392-.503-2.024-.885a7.587 7.587 0 0 1-1.389-1.09 11.21 11.21 0 0 1-1.29-1.562c-.229-.33-.442-.671-.636-1.023-.139-.244-.25-.503-.33-.772s-.143-.544-.157-.824a2.56 2.56 0 0 1 .445-1.508c.132-.188.287-.358.462-.507a.786.786 0 0 1 .419-.214z" style="fill:var(--color13, #0e972c)"/></symbol><symbol id="icon-advantage1" viewBox="0 0 32 32"><path fill="#e96315" d="M11.946 4.757a12.117 12.117 0 0 1 6.954-.593 12.092 12.092 0 0 1 5.817 3.059 12.124 12.124 0 0 1 3.29 5.333 12.05 12.05 0 0 1-.561 8.392 12.214 12.214 0 0 1-4.556 5.256 12.015 12.015 0 0 1-7.199 1.869 12.022 12.022 0 0 1-5.727-1.847 12.168 12.168 0 0 1-4.282-4.659 12.262 12.262 0 0 1-1.366-5.262c-.331.297-.622.635-.952.932-.164.161-.468.043-.504-.177-.05-.177.081-.326.198-.439.484-.474.957-.959 1.44-1.435.126-.157.365-.128.492.012.474.464.937.939 1.41 1.404.112.118.274.257.212.441-.049.212-.338.316-.501.163-.392-.335-.718-.743-1.132-1.054-.024.898.126 1.793.338 2.664a11.49 11.49 0 0 0 3.211 5.473 11.415 11.415 0 0 0 4.82 2.746c2.884.819 6.086.431 8.688-1.06a11.567 11.567 0 0 0 4.829-5.294c1.313-2.87 1.337-6.289.081-9.182a11.59 11.59 0 0 0-3.879-4.816 11.32 11.32 0 0 0-6.318-2.131 11.41 11.41 0 0 0-6.539 1.843 11.526 11.526 0 0 0-3.018 2.857c-.118.153-.207.333-.358.457-.216.132-.541-.074-.48-.331.062-.196.204-.353.319-.52a11.973 11.973 0 0 1 5.274-4.101z" style="fill:var(--color1, #e96315)"/><path fill="#e96315" d="M9.418 11.436c-.079-.791.602-1.546 1.392-1.575.69-.064 1.372.421 1.549 1.089.127.398.024.824-.161 1.186-.408.807-1.051 1.455-1.644 2.124.536.033 1.074-.011 1.609.021.252.023.331.38.162.543-.099.104-.254.084-.384.091-.729-.006-1.458.002-2.187-.003-.175.017-.352-.114-.356-.296-.019-.144.085-.259.182-.35.692-.643 1.366-1.321 1.886-2.114.204-.326.41-.73.247-1.116-.174-.474-.796-.687-1.226-.426-.306.151-.424.494-.453.813-.021.332-.577.337-.616.012zM14.916 9.981c.14-.245.571-.133.565.153.019.974-.004 1.948.011 2.922.225.002.454-.019.676.026.245.091.246.496.001.586-.223.043-.453.021-.678.024-.012.306.012.614-.014.92-.043.302-.568.314-.612.009-.036-.306-.013-.616-.011-.923-.64-.016-1.28.006-1.92-.009-.128.003-.289-.053-.305-.201-.039-.154.053-.292.136-.412.723-1.028 1.431-2.066 2.15-3.096zm-1.365 3.073c.434.007.869.005 1.303-.002-.011-.622-.006-1.244-.002-1.866-.451.61-.884 1.234-1.301 1.868zM21.771 11.642c.159-.065.36.016.413.184.061.136-.013.279-.112.374a39243.19 39243.19 0 0 0-9.124 9.124c-.126.124-.244.259-.384.369-.169.147-.47.021-.495-.2-.03-.118.044-.223.121-.303 3.031-3.031 6.063-6.061 9.092-9.093.161-.152.299-.334.488-.454zM19.182 18.177c.094-.108.248-.094.378-.099.836.003 1.671.003 2.507 0 .128.004.281-.006.37.107.126.131.082.346-.031.471-.914 1.164-1.515 2.607-1.539 4.099.008.161-.066.354-.249.372-.19.049-.385-.117-.361-.313-.003-1.22.358-2.424.945-3.488.114-.198.237-.391.339-.595-.717-.024-1.435.007-2.152-.014-.264-.003-.374-.358-.206-.539z" style="fill:var(--color1, #e96315)"/></symbol><symbol id="icon-advantage2" viewBox="0 0 32 32"><path fill="#e96315" d="M6.402 2.919c.176-.033.356-.04.536-.042l9.877.001c.433-.004.873.086 1.247.311a2.417 2.417 0 0 1 1.194 1.935c.008.266.035.536-.014.799-.099.282-.547.224-.602-.056-.042-.398.034-.816-.119-1.198-.224-.659-.877-1.152-1.579-1.146H6.81c-.911-.011-1.694.828-1.686 1.726-.003 7.168 0 14.336-.001 21.504-.011.659.374 1.314.976 1.596.277.143.595.172.903.168 3.311-.004 6.623.003 9.935-.004.677.006 1.304-.461 1.552-1.08.118-.273.142-.574.136-.869-.003-1.709.002-3.419-.003-5.128.003-.132.001-.288.115-.378.159-.119.451-.069.506.142.032.161.021.327.023.49-.009 1.73.011 3.46-.009 5.189-.026 1.188-1.059 2.261-2.259 2.272-3.394.008-6.789.004-10.183.002-1.246.019-2.332-1.108-2.332-2.341-.007-7.02 0-14.04-.003-21.06-.004-.423-.012-.858.133-1.263A2.347 2.347 0 0 1 6.402 2.92z" style="fill:var(--color1, #e96315)"/><path fill="#e96315" d="M7.905 4.718c.267-.102.537.256.354.481-.278.323-.6.607-.897.913-.196.183-.367.392-.578.558-.181.131-.466-.015-.474-.236-.026-.154.098-.267.195-.366.388-.383.772-.769 1.155-1.156.075-.072.149-.15.245-.193zM10.155 4.702c.134.009.299.009.379.139.098.14.056.332-.071.439l-3.56 3.56c-.104.113-.271.202-.419.115-.206-.091-.235-.394-.058-.53 1.244-1.239 2.481-2.487 3.729-3.723zM20.521 7.207a6.299 6.299 0 0 1 6.63 8.381 6.345 6.345 0 0 1-2.945 3.429 6.296 6.296 0 0 1-9.287-5.765 6.269 6.269 0 0 1 1.51-3.884 6.3 6.3 0 0 1 4.094-2.161zm.008.645c-1.921.228-3.671 1.52-4.448 3.292a5.696 5.696 0 0 0-.163 4.249 5.688 5.688 0 0 0 2.047 2.703c.883.63 1.951.999 3.036 1.032a5.652 5.652 0 0 0 5.761-4.504 5.747 5.747 0 0 0-.326-3.373 5.626 5.626 0 0 0-2.701-2.869 5.67 5.67 0 0 0-3.205-.53z" style="fill:var(--color1, #e96315)"/><path fill="#e96315" d="M20.929 9.86c.104-.223.47-.214.578.002.043.144.021.297.039.444.188.102.41.127.593.242.36.212.684.544.787.958.044.311-.419.493-.576.206-.183-.33-.448-.648-.834-.732-.575-.17-1.21.235-1.352.805-.092.364-.026.834.332 1.034.629.356 1.381.468 1.971.901.626.489.642 1.471.227 2.102-.265.431-.732.694-1.218.797-.013.176.037.378-.071.532-.129.192-.481.162-.549-.067-.035-.161-.026-.328-.049-.491a1.758 1.758 0 0 1-1.224-1.054c-.087-.213.127-.463.351-.417.186.017.249.219.344.349.274.471.911.7 1.411.464.55-.229.834-.929.595-1.474-.198-.374-.644-.476-1.006-.622-.469-.197-.992-.328-1.367-.69-.386-.374-.454-.965-.347-1.468.144-.646.685-1.162 1.324-1.315.012-.168-.016-.345.042-.507zM6.524 22.095c.178-.031.359-.014.539-.016 3.354.004 6.707-.004 10.061.003.277-.022.412.342.244.538-.07.095-.195.103-.302.104-3.46-.003-6.92-.002-10.38-.001-.093-.005-.199-.004-.271-.071-.179-.147-.131-.505.11-.556zM11.651 24.666c.462-.122.979.169 1.125.621.189.492-.122 1.092-.628 1.231-.509.172-1.107-.183-1.21-.708-.129-.495.22-1.034.713-1.144z" style="fill:var(--color1, #e96315)"/></symbol><symbol id="icon-advantage3" viewBox="0 0 32 32"><path fill="#e96315" d="M16 3.664c.617-.589 1.459-.948 2.318-.905.909.057 1.804.539 2.297 1.314.394.589.579 1.322.474 2.026-.092.704-.45 1.355-.947 1.854-1.288 1.274-2.572 2.553-3.858 3.829-.08.071-.168.158-.283.154-.13-.003-.226-.102-.316-.184-1.264-1.256-2.543-2.499-3.809-3.752-.456-.466-.799-1.052-.932-1.693-.178-.85.031-1.786.602-2.448a3.126 3.126 0 0 1 1.827-1.034c.741-.119 1.531.034 2.153.461.166.116.318.249.474.378zm-2.899-.125c-.909.286-1.587 1.191-1.579 2.148-.012.683.315 1.336.801 1.804 1.225 1.213 2.447 2.429 3.678 3.637 1.034-1.008 2.054-2.031 3.082-3.045.434-.444.942-.85 1.187-1.438a2.25 2.25 0 0 0-.094-2.065c-.544-.968-1.829-1.398-2.86-1.014-.423.136-.756.442-1.06.753-.106.128-.315.179-.445.058-.233-.204-.438-.445-.713-.598A2.43 2.43 0 0 0 13.1 3.54z" style="fill:var(--color1, #e96315)"/><path fill="#e96315" d="M11.144 9.705c.129-.04.285-.101.408-.009.177.105.194.392.029.516-.131.089-.286.127-.433.182-1.184.399-2.361.813-3.546 1.21a7.422 7.422 0 0 0-.478.179c2.922 1.133 5.843 2.272 8.766 3.404.108.059.22.001.324-.034 2.886-1.126 5.774-2.242 8.659-3.367a3.184 3.184 0 0 0-.239-.103c-1.291-.435-2.576-.886-3.867-1.321-.119-.044-.244-.077-.349-.149-.165-.125-.148-.41.032-.514.123-.09.277-.034.406.008 1.627.563 3.256 1.125 4.884 1.686.158.052.311.136.401.281 1.061 1.543 2.122 3.085 3.186 4.626.095.129.183.324.056.463-.159.151-.381.204-.575.296-3.112 1.348-6.224 2.696-9.337 4.042-.159.101-.356.031-.443-.128-.908-1.409-1.784-2.839-2.704-4.24-.014 3.891-.008 7.781-.003 11.671.829-.329 1.636-.711 2.456-1.062 2.219-.971 4.435-1.948 6.654-2.917.019-1.538.002-3.077.008-4.615.004-.112.012-.244.111-.316.146-.113.413-.086.494.094.045.133.035.275.039.413-.009 1.543.007 3.085-.007 4.628.016.198-.173.3-.328.366-3.203 1.382-6.402 2.771-9.601 4.157-.098.049-.208.072-.308.017-3.259-1.409-6.516-2.823-9.774-4.234-.192-.052-.216-.263-.209-.431v-4.629c.006-.111-.001-.233.061-.329.14-.191.513-.149.564.099.04.262.012.53.018.795.006 1.328-.011 2.656.009 3.984 1.892.82 3.781 1.645 5.671 2.468 1.168.502 2.326 1.029 3.501 1.512.011-2.029.001-4.059.005-6.089-.007-1.86.011-3.721-.009-5.581-.909 1.39-1.784 2.802-2.676 4.204-.069.108-.164.232-.31.214-.21-.051-.4-.159-.598-.242-3.117-1.362-6.236-2.721-9.352-4.085-.216-.068-.22-.336-.09-.487 1.008-1.471 2.022-2.938 3.027-4.411.135-.193.259-.429.502-.499 1.656-.572 3.312-1.146 4.968-1.72zm-5.613 3.573c-.718 1.049-1.46 2.082-2.16 3.142 3.067 1.328 6.131 2.663 9.199 3.989.09-.129.178-.26.261-.394.887-1.426 1.799-2.838 2.679-4.268-1.612-.652-3.241-1.261-4.859-1.899-1.449-.557-2.888-1.137-4.341-1.681-.277.358-.516.742-.778 1.109zm10.96 2.47c.237.408.501.799.749 1.202.735 1.151 1.444 2.319 2.193 3.46 3.068-1.318 6.139-2.627 9.198-3.966-.439-.664-.9-1.314-1.348-1.972-.534-.765-1.044-1.547-1.591-2.301a2332.437 2332.437 0 0 0-9.201 3.578z" style="fill:var(--color1, #e96315)"/></symbol><symbol id="icon-advantage4" viewBox="0 0 32 32"><path fill="#e96315" d="M11.388 5.513a7.164 7.164 0 0 1 3.735-1.617 7.205 7.205 0 0 1 5.294 1.437 7.193 7.193 0 0 1 2.698 4.42c.226 1.201.111 2.447-.249 3.61.343.192.672.449.828.822.168.351.151.748.147 1.127-.006.354.029.72-.09 1.061a1.588 1.588 0 0 1-.967.974c-.265.099-.552.089-.83.101-.1 1.332-.891 2.521-1.927 3.328-.398.336-.869.561-1.305.839.071.518.153 1.034.254 1.547a20.916 20.916 0 0 1 7.083 2.402c.186.116.453.2.497.446.034.149-.074.291-.213.334-.142.063-.288-.021-.41-.089a19.75 19.75 0 0 0-7.133-2.427c-.157-.014-.339-.074-.385-.244-.156-.552-.223-1.124-.306-1.69-.77.291-1.594.5-2.422.424-.598-.047-1.173-.229-1.737-.424-.097.567-.159 1.142-.301 1.699-.037.169-.225.213-.372.235a19.832 19.832 0 0 0-6.828 2.246c-.164.087-.319.192-.491.266-.191.089-.464-.058-.458-.278-.008-.151.103-.269.226-.336a20.53 20.53 0 0 1 6.308-2.376c.351-.069.705-.118 1.055-.193.123-.508.19-1.026.252-1.544-.257-.169-.553-.276-.788-.477-.189-.158-.074-.502.159-.544.123-.024.236.046.339.103.787.485 1.666.845 2.586.972.729.094 1.464-.074 2.147-.32 1.154-.438 2.242-1.149 2.948-2.179a3.56 3.56 0 0 0 .642-2.041c-.004-1.145.005-2.291-.004-3.436-.106-.821-.427-1.639-1.005-2.244a3.44 3.44 0 0 0-.981-.714c-.748.825-1.626 1.54-2.631 2.029a7.988 7.988 0 0 1-3.072.834c-.216.025-.429-.217-.324-.423.204-.416.459-.809.601-1.253-.268.18-.507.398-.772.581a8.238 8.238 0 0 1-3.097 1.356c-.024.964-.001 1.93-.011 2.894-.002.356-.021.741.183 1.052.291.436.775.698 1.262.86.701.226 1.441.301 2.174.316.139-.356.348-.708.703-.885.535-.303 1.269-.196 1.681.264.469.486.484 1.323.042 1.831-.417.509-1.221.638-1.771.275-.309-.186-.508-.501-.631-.832-1.098-.092-2.251-.179-3.219-.758-.524-.304-.924-.821-1.036-1.421-.306-.018-.625-.003-.914-.127a1.572 1.572 0 0 1-.994-1.385 19.772 19.772 0 0 1 0-1.193c.02-.571.385-1.112.905-1.348.224-.107.472-.137.715-.166-.375-1.117-.435-2.324-.234-3.482a7.132 7.132 0 0 1 2.444-4.239zm.806.305a6.468 6.468 0 0 0-2.489 3.577c-.356 1.276-.294 2.656.126 3.908a8.685 8.685 0 0 0 1.598-.5c1.161-.493 2.175-1.301 2.972-2.273.159-.254.634-.091.573.211a8.444 8.444 0 0 1-.748 2.176c1.789-.294 3.478-1.214 4.656-2.598.131-.144.291-.381.517-.273.449.207.868.486 1.232.821.713.655 1.111 1.577 1.32 2.507l.298.002c.43-1.267.5-2.659.141-3.953-.358-1.348-1.179-2.554-2.268-3.421a6.45 6.45 0 0 0-4.253-1.426c-1.309.051-2.612.47-3.676 1.241zM8.4 14.276c-.277.322-.201.771-.211 1.161-.008.365-.028.78.244 1.066.241.295.641.361 1.001.329.008-.97.008-1.94.001-2.909-.374-.036-.796.034-1.035.354zm13.554-.351c-.003.967-.004 1.935.001 2.902.371.04.791-.029 1.031-.344.281-.324.204-.777.216-1.171.008-.369.025-.789-.252-1.074-.241-.291-.639-.35-.995-.314zm-7.059 4.656c-.421.084-.668.573-.515.969.134.423.682.608 1.058.387.354-.186.473-.679.269-1.017a.744.744 0 0 0-.813-.339zM1.954 27.511c.076-.016.153-.024.231-.024h27.631c.166-.012.375.035.412.226a.32.32 0 0 1-.349.413c-9.232.004-18.464 0-27.696.003-.091-.006-.188-.001-.272-.041-.217-.115-.198-.5.043-.576z" style="fill:var(--color1, #e96315)"/></symbol><symbol id="icon-advantage5" viewBox="0 0 32 32"><path fill="#e96315" d="M4.647 5.031c.217-.056.444-.034.665-.037 7.251.002 14.502-.002 21.753.002.514-.031.971.433.971.939l-.001 11.503c.008 1.04-.014 2.082.01 3.121.307.459.693.865 1.031 1.303.503.621 1.006 1.241 1.511 1.859a.488.488 0 0 1 .136.345v1.935c.012.544-.486 1.038-1.034 1.004-9.127.001-18.253.002-27.38 0-.548.038-1.045-.462-1.034-1.004.002-.666-.001-1.333.001-1.999-.009-.128.07-.234.147-.327.801-.971 1.596-1.948 2.398-2.917.073-.092.159-.192.142-.319-.001-4.834.001-9.669-.001-14.504a.969.969 0 0 1 .684-.904zm.138.631c-.165.058-.183.25-.179.399.001 4.668.002 9.336-.001 14.003.003.098.011.196.021.294 3.332-.016 6.666-.003 9.999-.008 4.249.006 8.499-.009 12.748.008.047-.659.008-1.323.021-1.984.001-4.021-.002-8.041.001-12.063-.008-.179.023-.369-.046-.539-.084-.141-.264-.143-.408-.143-7.188-.001-14.377.001-21.565-.001-.196.005-.399-.022-.591.031zm-.341 15.332c-.804.991-1.611 1.981-2.419 2.969-.069.079-.12.175-.107.284.004.584-.006 1.169.004 1.754-.016.242.225.401.448.367 9.086.002 18.173-.002 27.259.001.116-.003.246-.005.333-.094.134-.114.116-.306.121-.463-.004-.522-.001-1.043-.001-1.565.021-.159-.102-.274-.191-.387-.78-.954-1.558-1.91-2.335-2.866-7.704-.007-15.408-.006-23.111 0z" style="fill:var(--color1, #e96315)"/><path fill="#e96315" d="M7.331 6.704c.292-.111.55.303.325.517-.426.447-.876.873-1.307 1.316-.113.106-.233.262-.409.224-.238-.019-.367-.347-.194-.518.431-.443.876-.872 1.306-1.315.086-.081.165-.179.278-.224zM9.711 6.71c.195-.082.431.083.431.292.003.104-.059.192-.128.263-1.239 1.239-2.48 2.477-3.717 3.718-.094.097-.211.202-.358.173-.207-.017-.343-.267-.239-.449.104-.146.244-.261.368-.389 1.094-1.094 2.189-2.186 3.281-3.282.117-.112.219-.246.363-.326zM15.837 8.283c.151-.064.313-.011.457.044 1.309.487 2.621.966 3.931 1.452.156.043.27.181.253.348-.013 1.832-.047 3.664-.063 5.496.017.169-.123.289-.266.344-1.346.571-2.693 1.139-4.039 1.709-.156.091-.318-.021-.464-.076-1.315-.562-2.635-1.114-3.951-1.674-.152-.049-.184-.223-.178-.363.004-1.812-.001-3.626.003-5.438a.337.337 0 0 1 .253-.346c1.356-.495 2.708-1.001 4.063-1.498zm.065.684c-.914.334-1.824.675-2.739 1.008-.146.051-.299.092-.425.187.982.403 1.961.812 2.939 1.225.149.056.311.166.469.074 1.038-.432 2.074-.87 3.114-1.298-.151-.117-.343-.152-.517-.221-.832-.314-1.671-.612-2.502-.93-.109-.034-.226-.097-.339-.044zm-3.729 1.645c-.026 1.525-.001 3.051-.012 4.577.014.105-.043.266.096.304 1.137.486 2.283.953 3.422 1.434.009-1.62-.001-3.24.005-4.861-1.171-.484-2.33-.996-3.511-1.454zm4.143 1.455c.006 1.62-.002 3.241.004 4.861 1.13-.466 2.255-.945 3.384-1.412.094-.026.154-.101.133-.201-.006-1.567.013-3.135-.01-4.702-1.179.463-2.34.972-3.512 1.454zM2.957 24.402c.2-.034.404-.014.606-.017 8.439.001 16.878-.001 25.316.001.208-.033.408.149.366.362-.001.188-.201.289-.368.275-8.271.002-16.543 0-24.814.001-.373-.009-.748.021-1.119-.014-.303-.061-.279-.548.014-.607z" style="fill:var(--color1, #e96315)"/></symbol><symbol id="icon-advantage6" viewBox="0 0 32 32"><path fill="#e96315" d="M2.658 7.029c.557-.613 1.401-.886 2.213-.883l14.693-.001c.177-.02.376.096.367.292.021 1.012-.012 2.025.015 3.037.643-.007 1.286-.001 1.929-.004a3.54 3.54 0 0 1 1.226.18c.659.234 1.229.664 1.724 1.149 1.064 1.018 1.931 2.217 2.764 3.425.758 1.117 1.488 2.257 2.087 3.468.188.392.38.79.474 1.218.069.286-.017.574-.075.854-.29 1.24-.725 2.44-1.197 3.621-.039.116-.131.223-.263.223-.78.033-1.563-.019-2.343.024-.107.713-.51 1.383-1.119 1.776a2.534 2.534 0 0 1-2.351.223 2.52 2.52 0 0 1-1.183-1.004 2.57 2.57 0 0 1-.215-2.216 2.514 2.514 0 0 1 3.184-1.506c.901.296 1.556 1.138 1.69 2.068.616.006 1.233-.002 1.849.004.106-.008.268.031.297-.112a21.056 21.056 0 0 0 1.054-3.246c.051-.252.126-.517.04-.77-.116-.361-.288-.7-.457-1.038-.589-1.131-1.271-2.21-1.983-3.267-.864-1.254-1.761-2.513-2.933-3.502-.564-.484-1.257-.883-2.019-.894-.794-.006-1.587-.001-2.381-.001-.136-.008-.31.001-.396-.127-.068-.119-.052-.263-.059-.394.003-.935.003-1.87.001-2.805-4.766-.013-9.531-.001-14.297-.006-.62-.011-1.272.141-1.741.569-.631.579-.854 1.471-.857 2.301-.001 2.617-.002 5.234.001 7.852 5.631.004 11.261 0 16.891.002.008-1.659.001-3.318.003-4.976.004-.226-.02-.454.021-.676.064-.279.538-.271.601.006.04.242.016.489.02.733-.001 1.689-.002 3.378.001 5.067.003.142-.019.323-.169.386-.208.062-.431.028-.645.035-5.333-.002-10.666 0-16-.001-.242-.002-.484-.005-.726.016.006 1.104-.002 2.209.004 3.314.007.458.08 1.011.512 1.268.613.334 1.337.18 2.001.255.291.074.265.578-.043.605-.373.032-.75.012-1.124-.006-.562-.039-1.18-.175-1.554-.633-.377-.469-.433-1.1-.434-1.68-.001-3.876-.002-7.753.001-11.629.004-.928.251-1.9.897-2.593zm20.738 14.427c-.924.201-1.608 1.161-1.457 2.103.119.991 1.123 1.762 2.113 1.609.976-.106 1.75-1.07 1.634-2.046-.078-1.085-1.227-1.941-2.289-1.666z" style="fill:var(--color1, #e96315)"/><path fill="#e96315" d="M11.011 8.392c.104-.223.47-.214.578.002.043.144.021.297.039.444.188.102.41.127.592.242.36.213.684.544.788.958.044.311-.419.493-.576.206-.182-.33-.447-.648-.834-.732-.575-.17-1.21.235-1.352.805-.093.364-.026.834.332 1.034.629.356 1.381.468 1.971.901.626.489.642 1.471.227 2.102-.265.431-.732.694-1.218.797-.013.176.037.377-.071.532-.129.192-.481.162-.549-.067-.035-.161-.026-.328-.049-.491a1.758 1.758 0 0 1-1.224-1.054c-.088-.212.127-.463.351-.417.186.017.249.219.344.349.274.471.911.7 1.411.464.55-.229.834-.929.595-1.474-.198-.374-.644-.476-1.006-.622-.469-.197-.992-.328-1.368-.69-.386-.374-.454-.965-.347-1.468.144-.646.685-1.162 1.324-1.315.012-.168-.016-.345.042-.507zM7.177 21.301a2.555 2.555 0 0 1 2.362-.402c.865.279 1.515 1.056 1.697 1.939 2.567.02 5.134.003 7.701.009.267.008.538-.025.802.024.317.097.226.647-.116.613-2.785.016-5.571-.011-8.356.013a2.568 2.568 0 0 1-.974 1.798 2.576 2.576 0 0 1-2.222.442 2.507 2.507 0 0 1-1.664-1.45c-.445-1.019-.122-2.314.77-2.985zm1.096.167a1.932 1.932 0 0 0-.769.411c-.614.517-.836 1.445-.493 2.176.324.775 1.213 1.256 2.04 1.101a1.935 1.935 0 0 0 1.515-1.405 1.846 1.846 0 0 0-.264-1.49c-.422-.654-1.272-1.001-2.029-.793z" style="fill:var(--color1, #e96315)"/></symbol><symbol id="icon-category_game" viewBox="0 0 32 32"><path fill="#5b819a" d="M4.566 6.003c1.08-.611 2.407-.74 3.598-.419.021.184.031.368.036.553.207.009.449-.044.616.111.277.228.374.591.455.924.254 1.089.477 2.186.699 3.283.08.391.196.793.107 1.193-.137.686-.603 1.239-1.095 1.709-.885.899-1.572 1.969-2.182 3.068a34.695 34.695 0 0 0-1.596 3.157c-.683 1.51-1.216 3.081-1.714 4.659-.257.716-.402 1.54-1.013 2.057a2.168 2.168 0 0 1-1.041-.421c-.389-.324-.619-.789-.819-1.243-.439-1.019-.552-2.137-.618-3.234v-1.3c.238-4.381 1.268-8.747 3.228-12.684.071-.131.128-.278.239-.383.156-.08.331-.117.495-.178.022-.168.023-.341.081-.501.145-.155.342-.247.522-.353zm3.775 1.343a.375.375 0 0 0-.25.448c.056.265.084.543.196.791.164.279.643.174.675-.148-.005-.275-.082-.543-.147-.809a.37.37 0 0 0-.474-.282zm-2.823 1.55a.444.444 0 0 0-.324.418c.001.291.019.582.053.871.044.3.304.489.496.697.112.106.261.291.431.182.202-.154.373-.346.543-.534.178-.193.184-.466.196-.713.006-.203.041-.409.001-.611-.05-.207-.263-.343-.471-.331-.308.002-.619-.024-.924.02zm-1.746 1.755a.44.44 0 0 0-.337.412 8.571 8.571 0 0 0-.002.878.443.443 0 0 0 .436.431c.281.005.561-.013.84-.044.316-.036.518-.306.734-.508.093-.104.246-.215.199-.375-.074-.154-.215-.26-.331-.381-.174-.171-.362-.369-.623-.382-.304-.019-.612-.065-.917-.031zm3.819.016c-.437-.029-.718.338-.994.614-.088.084-.171.209-.1.331.153.203.347.373.533.545.244.226.599.182.905.212.209.004.462.047.621-.124.196-.195.12-.497.138-.744-.011-.27.06-.628-.216-.794-.274-.136-.595-.035-.888-.039zm-1.637 1.277c-.313.287-.736.589-.732 1.061-.012.246-.041.493-.024.739a.449.449 0 0 0 .426.391c.293.015.587.016.879-.001a.45.45 0 0 0 .427-.449 7.431 7.431 0 0 0-.056-.87c-.049-.296-.31-.48-.499-.689-.109-.107-.25-.274-.419-.182zM23.837 5.586c1.364-.375 2.907-.134 4.056.707.152.138.103.378.145.563.164.061.337.098.494.179.121.116.182.279.261.424 1.947 3.926 2.969 8.276 3.208 12.642V21.4c-.081 1.395-.261 2.858-1.051 4.049-.312.492-.865.777-1.431.854-.481-.398-.673-1.01-.859-1.581-.397-1.201-.763-2.412-1.226-3.589a36.152 36.152 0 0 0-1.662-3.652c-.696-1.288-1.396-2.592-2.368-3.697-.352-.417-.787-.762-1.091-1.219-.226-.336-.398-.721-.425-1.129-.022-.309.066-.611.124-.911.23-1.123.448-2.248.714-3.362.083-.333.179-.694.459-.918.169-.152.411-.096.617-.106.004-.184.015-.369.037-.552zm-.43 1.763c-.239.083-.249.373-.304.58-.029.216-.147.463-.012.666.147.224.536.197.635-.057.092-.275.15-.563.181-.851.011-.248-.277-.425-.5-.337zm2.3.857c-.422.12-.736.542-.711.982-.006.549.522 1.026 1.068.971.545-.023.991-.557.923-1.098-.046-.599-.706-1.052-1.28-.856zm-2.376 2.375a.996.996 0 0 0-.71.982c-.005.548.522 1.024 1.067.971.542-.022.989-.553.924-1.091-.041-.603-.704-1.059-1.281-.862zm4.751 0a.989.989 0 0 0-.707.854c-.082.569.429 1.122 1 1.101.568.013 1.058-.538.986-1.1-.045-.599-.704-1.053-1.279-.856zm-2.375 2.375a.988.988 0 0 0-.706.854c-.081.569.429 1.119.999 1.101.565.013 1.055-.534.988-1.093-.044-.602-.703-1.061-1.281-.862zM9.188 6.04c3.009-.322 6.039-.453 9.063-.335 1.524.052 3.043.184 4.559.334-.399.528-.484 1.197-.632 1.824-.212.964-.407 1.933-.599 2.902a2.333 2.333 0 0 1-.865 1.324c-.336.225-.756.256-1.149.262h-7.13c-.435-.005-.912-.043-1.258-.336a2.364 2.364 0 0 1-.796-1.394c-.253-1.256-.492-2.516-.806-3.759-.063-.301-.234-.559-.387-.821z" style="fill:var(--color14, #5b819a)"/><path fill="#5b819a" d="M21.018 12.331c.206-.159.368-.366.531-.567.094.337.219.669.417.959.301.478.747.836 1.112 1.261 1.033 1.172 1.768 2.564 2.495 3.936a35.375 35.375 0 0 1 1.671 3.775c.475 1.26.836 2.559 1.297 3.824.108.336.331.611.522.901-.434.083-.873.168-1.316.158-.336-.041-.544-.352-.718-.612-.662-1.101-.916-2.379-1.365-3.569-.328-.864-.711-1.728-1.304-2.446-.386-.463-.921-.862-1.544-.889-.533-.029-1.028.245-1.563.222-3.439.008-6.879.001-10.318.004a3.58 3.58 0 0 1-1.035-.13c-.369-.107-.769-.143-1.138-.021-.538.171-.959.581-1.291 1.023-.607.822-.985 1.782-1.32 2.74-.342 1.039-.617 2.119-1.184 3.065-.173.261-.381.569-.716.613-.445.01-.886-.074-1.321-.16.259-.363.494-.746.621-1.177.414-1.196.764-2.414 1.213-3.598a35.105 35.105 0 0 1 1.848-4.097c.667-1.231 1.344-2.477 2.276-3.533.36-.431.814-.782 1.117-1.261.204-.292.326-.629.439-.964.224.241.431.509.721.674.402.233.881.262 1.335.264 2.355-.001 4.71.001 7.065-.001.504-.002 1.048-.064 1.453-.394zm-10.561 1.752a1.89 1.89 0 0 0-1.386 1.301c-.257.828.152 1.791.924 2.183.791.438 1.875.189 2.391-.555.557-.731.445-1.861-.239-2.473a1.887 1.887 0 0 0-1.691-.457zm10.251 0a1.882 1.882 0 0 0-1.261.983 1.881 1.881 0 0 0-.024 1.639c.204.439.585.792 1.039.961.68.262 1.503.08 2.004-.451a1.879 1.879 0 0 0 .333-2.136c-.361-.76-1.272-1.194-2.09-.996z" style="fill:var(--color14, #5b819a)"/></symbol><symbol id="icon-category_phone" viewBox="0 0 32 32"><path fill="#5b819a" d="M8.846 0h14.309c.501.076.97.384 1.19.848.196.374.155.807.156 1.214v24.5c-.006 1.333.008 2.666-.006 3.998-.018.729-.628 1.348-1.34 1.439H8.726c-.411-.139-.814-.372-1.026-.766-.245-.387-.199-.86-.2-1.296.002-9.481-.002-18.962.002-28.442C7.491.747 8.115.092 8.846 0zm-.345 3.001C8.5 11.5 8.499 20 8.501 28.499c4.999.001 9.999.001 14.998-.001.001-8.499.002-16.998 0-25.497-4.999-.002-9.999-.002-14.998 0zm7.211 26.288c-.408.126-.721.528-.711.96-.011.531.465 1.014.999 1 .579.021 1.086-.553.993-1.126-.056-.594-.712-1.02-1.28-.834z" style="fill:var(--color14, #5b819a)"/><path fill="#5b819a" d="M10.396 4.523c.173-.062.361-.041.541-.046.5.01 1.001-.013 1.501.009.317.02.571.319.559.634.006.586.006 1.173-.001 1.759a.622.622 0 0 1-.624.598c-.581.003-1.163.004-1.745 0a.622.622 0 0 1-.623-.598c-.011-.586-.003-1.173-.003-1.759a.636.636 0 0 1 .395-.598zM14.896 4.524c.173-.061.361-.042.541-.046.479.007.959-.005 1.438.004a.626.626 0 0 1 .622.639c.003.586.008 1.173-.002 1.759a.626.626 0 0 1-.624.598c-.581.004-1.163.003-1.744 0-.35.013-.651-.315-.628-.66.001-.566-.005-1.131.002-1.696a.635.635 0 0 1 .394-.598zM19.396 4.524c.152-.056.319-.043.479-.046.5.007 1.001-.005 1.501.005a.619.619 0 0 1 .617.579c.021.5-.002 1.001.009 1.501-.004.214.024.455-.111.639a.617.617 0 0 1-.519.276c-.581.003-1.163.004-1.744 0a.623.623 0 0 1-.623-.598c-.01-.586-.005-1.173-.003-1.759a.632.632 0 0 1 .394-.598zM10.396 9.024c.173-.061.361-.042.541-.046.479.007.959-.005 1.438.004.339-.009.637.3.622.639.003.586.008 1.173-.002 1.759a.624.624 0 0 1-.623.598c-.582.004-1.164.003-1.746 0a.623.623 0 0 1-.542-.314c-.102-.16-.084-.357-.087-.538.008-.501-.006-1.002.004-1.504a.635.635 0 0 1 .394-.598zM14.897 9.024c.152-.056.318-.043.478-.046.501.007 1.001-.006 1.501.004a.619.619 0 0 1 .617.579c.021.5-.002 1.001.009 1.501-.004.214.025.454-.111.638a.64.64 0 0 1-.576.279c-.562-.003-1.124.003-1.686-.002a.624.624 0 0 1-.624-.598c-.01-.586-.005-1.172-.002-1.759a.628.628 0 0 1 .395-.598zM19.396 9.024c.173-.062.361-.043.541-.046.479.008.959-.006 1.439.004a.619.619 0 0 1 .617.579c.016.585.004 1.171.006 1.756a.636.636 0 0 1-.339.592c-.164.086-.355.068-.533.071-.517-.008-1.036.009-1.552-.007-.33-.013-.593-.332-.573-.657-.001-.565-.003-1.131.001-1.696a.636.636 0 0 1 .395-.598zM10.396 13.524c.194-.066.402-.041.604-.046.479.008.96-.012 1.439.009.318.018.567.322.559.633.007.566.002 1.131.002 1.697a.643.643 0 0 1-.341.592c-.164.086-.355.068-.534.071-.499-.008-.999.004-1.498-.004a.622.622 0 0 1-.624-.597c-.01-.586-.005-1.172-.002-1.759a.632.632 0 0 1 .394-.598zM14.896 13.524c.173-.062.361-.044.541-.047.479.008.959-.007 1.439.004a.62.62 0 0 1 .617.579c.016.585.004 1.171.006 1.757.024.346-.276.672-.626.66-.582.004-1.163.004-1.744 0a.621.621 0 0 1-.624-.597c-.009-.586-.004-1.172-.002-1.759a.633.633 0 0 1 .395-.597zM10.458 24.026c.469-.061.946-.01 1.418-.026.264.012.551-.048.797.077.221.112.339.364.327.606-.001.566.007 1.131-.003 1.696a.62.62 0 0 1-.617.617c-.586.008-1.172.006-1.759.001a.623.623 0 0 1-.618-.617 85.949 85.949 0 0 1 .001-1.759.617.617 0 0 1 .454-.594zM14.957 24.025c.469-.058.946-.011 1.417-.026.251.011.516-.037.756.058.244.101.382.369.369.627v1.633c.007.225-.089.462-.287.582-.193.127-.433.1-.651.103-.501-.012-1.001.013-1.501-.01a.614.614 0 0 1-.557-.612 79.338 79.338 0 0 1-.001-1.759.615.615 0 0 1 .454-.594zM19.457 24.026c.469-.061.946-.008 1.417-.026.278.013.588-.054.838.102.199.119.296.356.287.582.001.566.005 1.131-.003 1.696a.62.62 0 0 1-.617.617c-.586.006-1.173.007-1.76.001a.62.62 0 0 1-.617-.618c-.009-.565-.001-1.131-.003-1.696-.019-.291.167-.588.457-.658z" style="fill:var(--color14, #5b819a)"/></symbol><symbol id="icon-category_note" viewBox="0 0 32 32"><path fill="#5b819a" d="M3.134 7.756c.184-.324.551-.523.924-.507 7.793.002 15.586.001 23.379.001.351.009.734-.055 1.052.133.328.182.528.552.511.926-.002 4.98-.001 9.961-.001 14.941.856.003 1.712.001 2.568-.001a.922.922 0 0 1 .432.108v.489a1.055 1.055 0 0 1-.505.772c-.319.189-.705.123-1.058.134-9.624-.001-19.249-.002-28.874 0-.353-.011-.738.054-1.058-.134-.247-.14-.399-.394-.505-.649v-.608a.886.886 0 0 1 .432-.112c.856.003 1.711.004 2.567.001.002-4.832.001-9.666 0-14.498.006-.333-.046-.696.136-.995zm.867.496c-.001 4.666-.002 9.332 0 13.997 7.999.002 15.998.001 23.997 0 .002-4.666.002-9.331 0-13.997C19.999 8.25 12 8.25 4.001 8.251zm9.229 15.007c.046.116.071.254.177.334.203.156.473.157.717.159 1.315-.005 2.629.003 3.944-.004.312.011.657-.148.703-.489a393.487 393.487 0 0 0-5.54 0z" style="fill:var(--color14, #5b819a)"/><path fill="#5b819a" d="M13.65 19.099c.441-.139.934.251.899.713-.001.442-.478.797-.902.661a.711.711 0 0 1 .003-1.374zM18.026 19.099c.419-.132.892.215.898.652.031.401-.334.773-.736.748-.406-.004-.748-.406-.683-.807a.717.717 0 0 1 .52-.593z" style="fill:var(--color14, #5b819a)"/></symbol><symbol id="icon-category_pult" viewBox="0 0 32 32"><path fill="#5b819a" d="M24.918 2.672c.272-.151.588-.191.895-.189 1.479.002 2.958.001 4.437.001a1.7 1.7 0 0 1 1.198.442c.291.254.454.619.552.986v24.054c-.063.382-.222.759-.505 1.029a1.711 1.711 0 0 1-1.241.489c-1.335.001-2.669-.002-4.004.001-.279-.001-.561.013-.839-.028a1.69 1.69 0 0 1-1.344-1.2c-.097-.348-.066-.712-.068-1.069.002-7.668-.001-15.337.001-23.005a1.693 1.693 0 0 1 .917-1.511zm1.17 8.428a1.313 1.313 0 0 0-1.045.946c-.171.606.166 1.299.751 1.533.606.273 1.386-.016 1.669-.617a1.306 1.306 0 0 0-.213-1.465 1.295 1.295 0 0 0-1.163-.397zm3.375.004a1.306 1.306 0 0 0-1.056 1.146 1.305 1.305 0 0 0 .911 1.374c.448.146.968.014 1.298-.32.339-.331.471-.854.327-1.305-.179-.614-.851-1.024-1.479-.894zm-3.442 3.61c-.61.123-1.071.731-1.017 1.352a1.3 1.3 0 1 0 2.29-.92 1.303 1.303 0 0 0-1.272-.432zm3.376.005c-.55.127-.991.647-.993 1.217-.009 1.104.002 2.209-.004 3.314-.003.318-.014.659.153.944.225.434.711.716 1.2.687a1.296 1.296 0 0 0 1.192-.924c.08-.27.054-.554.056-.831.001-1.021-.003-2.042.002-3.063a1.347 1.347 0 0 0-.265-.861 1.308 1.308 0 0 0-1.34-.482zm-3.44 3.611c-.503.131-.897.59-.949 1.107a1.308 1.308 0 0 0 .654 1.279 1.31 1.31 0 0 0 1.509-.168c.408-.359.544-.985.32-1.481-.237-.581-.932-.916-1.534-.737zM2.617 18.241c.794-.221 1.626-.257 2.446-.257l11.438.001c.849-.001 1.71.049 2.527.297.339.111.675.259.946.496.258.223.383.548.532.844.257.514.51 1.03.772 1.541.08.168.189.331.216.519-.072.257-.333.394-.557.502-.628.272-1.316.364-1.99.444-1.228.136-2.464.101-3.696.106H5.188c-.993.004-1.989-.014-2.976-.141-.561-.077-1.129-.174-1.653-.399a1.295 1.295 0 0 1-.558-.451v-.145c.341-.654.666-1.316.995-1.976.144-.283.262-.593.5-.814.311-.291.719-.449 1.122-.568zM0 22.756c.45.248.952.379 1.453.477 1.086.209 2.194.241 3.297.25 3.729.003 7.458 0 11.188.001 1.139 0 2.281.004 3.413-.145.74-.091 1.483-.25 2.151-.594 0 1.816-.003 3.631.002 5.447 0 .168-.009.358-.149.474-.296.272-.697.384-1.076.488-1.174.279-2.387.321-3.589.329H5.252c-1.063.004-2.13-.014-3.184-.16-.527-.083-1.062-.175-1.55-.4a1.224 1.224 0 0 1-.516-.437v-5.731z" style="fill:var(--color14, #5b819a)"/></symbol><symbol id="icon-category_photo" viewBox="0 0 32 32"><path fill="#5b819a" d="M4.402 3.852c.511-.041 1.026-.008 1.538-.019a2.016 2.016 0 0 1 1.463.578c.375.362.586.879.597 1.398.003.265.034.571-.157.784-.139.179-.372.247-.592.241-1.294-.004-2.587-.019-3.881-.022a.673.673 0 0 1-.666-.455c-.166-.792.125-1.689.808-2.155.264-.184.571-.308.891-.349z" style="fill:var(--color14, #5b819a)"/><path fill="#5b819a" d="M15.274 4.272c.416-.132.858-.104 1.288-.106 1.854 0 3.709.001 5.562-.001.43.003.871-.024 1.287.108.585.177 1.068.589 1.443 1.059.575.722.951 1.572 1.352 2.397.107.24.339.426.609.431.848.033 1.7-.041 2.545.051.723.088 1.468.344 1.963.903.436.469.615 1.111.676 1.734v14.791c-.132.469-.282.945-.584 1.336-.626.868-1.736 1.327-2.794 1.2-3.124-.021-6.248-.003-9.373-.009-5.167-.001-10.333.001-15.5-.001-.429-.002-.861.064-1.286-.021-.846-.156-1.623-.681-2.052-1.431a3.198 3.198 0 0 1-.412-1.251V10.849c.048-.434.129-.876.337-1.265a2.388 2.388 0 0 1 1.079-1.043c.588-.286 1.25-.371 1.897-.375 2.667-.002 5.334.002 8.001-.001.277.014.492-.186.648-.391.673-.906 1.286-1.864 2.067-2.684.35-.356.761-.674 1.246-.819zm3.819 5.582a7.664 7.664 0 0 0-4.805 2.184 7.639 7.639 0 0 0-2.264 4.884 7.64 7.64 0 0 0 1.248 4.805 7.681 7.681 0 0 0 4.854 3.282c1.47.306 3.028.16 4.419-.402a7.7 7.7 0 0 0 4.292-4.395 7.676 7.676 0 0 0 .128-5.051 7.686 7.686 0 0 0-3.112-4.081 7.657 7.657 0 0 0-4.76-1.227zM4.709 11.526c-.805.124-1.433.911-1.373 1.724.024.88.846 1.641 1.728 1.58.906-.007 1.678-.868 1.599-1.768-.032-.957-1.014-1.734-1.954-1.536z" style="fill:var(--color14, #5b819a)"/><path fill="#5b819a" d="M19.091 12.533a5.006 5.006 0 0 1 3.179.697 5.026 5.026 0 0 1 1.941 2.184c.484 1.05.591 2.27.282 3.385-.484 1.889-2.172 3.392-4.106 3.648a4.983 4.983 0 0 1-3.056-.528 5.003 5.003 0 0 1-2.273-6.36c.673-1.636 2.273-2.841 4.033-3.027z" style="fill:var(--color14, #5b819a)"/></symbol><symbol fill="none" xmlns="http://www.w3.org/2000/svg" viewBox="0 0 120 17" id="icon-webmaestro"><path d="M114.247 16.0771C111.082 16.0771 108.835 13.6863 108.835 10.6226C108.835 7.55893 111.082 5.16814 114.247 5.16814C117.413 5.16814 119.66 7.55893 119.66 10.6226C119.66 13.6863 117.413 16.0771 114.247 16.0771ZM7.23621 7.90252L4.47886 15.9339H3.63269L0 5.35425H1.38597L4.08496 13.2568L6.79853 5.35425H7.67388L10.402 13.2568L13.0864 5.35425H14.487L10.8397 15.9339H10.0081L7.23621 7.90252ZM16.3544 10.0213H24.5389C24.2909 7.87389 22.7153 6.2848 20.454 6.2848C18.1926 6.2848 16.617 7.87389 16.3544 10.0213ZM16.3544 11.1666C16.5587 13.3427 18.1489 14.9747 20.454 14.9747C21.4314 14.9747 22.3651 14.6884 23.1675 14.1301C23.4739 13.9153 23.8386 13.6004 24.0429 13.2854L24.1158 13.1709H25.531L25.3267 13.5574C25.0787 14.0298 24.6119 14.5166 24.1888 14.8602C23.1238 15.7335 21.8253 16.12 20.4394 16.12C17.2443 16.12 15.0122 13.7149 15.0122 10.6369C15.0122 7.55894 17.2443 5.1395 20.4394 5.1395C21.6503 5.1395 22.832 5.51172 23.7949 6.24185C24.4806 6.77155 25.0203 7.44441 25.3705 8.21748C25.7498 9.06213 25.9103 9.99268 25.8665 10.9089L25.8519 11.1523H16.3544V11.1666ZM29.1637 10.6226C29.1637 13.0277 30.7685 14.9604 33.2924 14.9604C35.8163 14.9604 37.4357 13.0134 37.4357 10.6226C37.4357 8.23179 35.8309 6.2848 33.2924 6.2848C30.7539 6.2848 29.1637 8.23179 29.1637 10.6226ZM29.1637 13.9869V15.9339H27.8652V0H29.1637V7.27261C29.3241 7.04355 29.5138 6.82881 29.6889 6.6427C30.6663 5.65488 31.8918 5.1395 33.2924 5.1395C36.4874 5.1395 38.7195 7.54462 38.7195 10.6226C38.7195 13.7149 36.4728 16.1057 33.2924 16.1057C31.921 16.1057 30.7101 15.6189 29.7326 14.6598C29.5284 14.445 29.3387 14.2303 29.1637 13.9869ZM48.3484 6.71428C49.1362 5.68352 50.2741 5.16814 51.5726 5.16814C52.5063 5.16814 53.3962 5.41151 54.1402 5.96984C55.4824 6.98629 55.9201 8.68991 55.9201 10.279V15.9053H53.6588V10.5081C53.6588 9.09076 53.3378 7.27261 51.5142 7.27261C49.6906 7.27261 49.3696 9.07645 49.3696 10.5081V15.9053H47.1229V10.5081C47.1229 9.09076 46.8019 7.27261 44.9783 7.27261C43.1546 7.27261 42.8337 9.07645 42.8337 10.5081V15.9053H40.5724V5.33993H42.8337V5.76941C43.4902 5.33993 44.2488 5.15382 45.0366 5.15382C46.3642 5.16814 47.546 5.65488 48.3484 6.71428ZM87.2138 13.9726C88.0162 13.9726 89.5335 13.8151 89.5335 12.7557C89.5335 12.6125 89.5189 12.4551 89.4313 12.3262C89.1104 11.7822 87.6952 11.5818 87.1117 11.4959C85.2443 11.2525 82.9246 10.5653 82.9246 8.30338C82.9246 7.85957 83.0121 7.43009 83.2018 7.04355C83.9166 5.56899 85.6819 5.15382 87.1992 5.15382C88.4247 5.15382 89.6939 5.45446 90.5839 6.34206C91.1383 6.90039 91.2987 7.35851 91.4446 7.9741H89.1396C89.0812 7.88821 88.9791 7.77368 88.9353 7.74504C88.483 7.35851 87.7974 7.2583 87.2138 7.2583C86.5135 7.2583 85.1859 7.37282 85.1859 8.30338C85.1859 8.38927 85.2005 8.48949 85.2443 8.57538C85.4923 9.06213 86.8345 9.29119 87.3305 9.36277C89.373 9.66341 91.7802 10.2504 91.7802 12.7414C91.7802 13.3283 91.6343 13.8867 91.2987 14.3877C90.438 15.7048 88.6873 16.0771 87.1992 16.0771C85.9008 16.0771 84.544 15.7764 83.5665 14.8602C83.1872 14.5023 82.8079 13.9726 82.6766 13.4715L82.6036 13.1566H84.9671C85.0546 13.2568 85.1567 13.357 85.2297 13.4142C85.7841 13.8437 86.5427 13.9726 87.2138 13.9726ZM94.7564 5.35425V2.66281H97.0177V5.35425H99.9939V7.44441H97.0177V11.5102C97.0177 12.0685 97.0177 12.6555 97.1198 13.1995C97.149 13.3856 97.2219 13.7006 97.3824 13.8294C97.5137 13.9439 97.7763 13.9583 97.9514 13.9583C98.3161 13.9583 98.6808 13.8867 99.0456 13.8151L100.008 13.6004V15.6762L99.4395 15.848C98.9434 15.9912 98.3745 16.0627 97.8638 16.0627C97.1636 16.0627 96.4779 15.9196 95.9235 15.4758C95.3983 15.0463 95.1357 14.4593 94.9752 13.8151C94.8001 13.0563 94.771 12.2833 94.771 11.5102V7.44441H92.6847V5.35425H94.7564ZM104.385 5.69783C105.013 5.3113 105.727 5.15382 106.471 5.15382C106.982 5.15382 107.536 5.2254 108.032 5.36856L108.587 5.54036V7.7021L107.58 7.40146C107.23 7.30124 106.836 7.2583 106.471 7.2583C105.99 7.2583 105.523 7.35851 105.173 7.7021C104.487 8.37496 104.414 9.80657 104.414 10.6942V15.8909H102.168V5.33993H104.414V5.69783H104.385ZM66.2346 6.25616V5.35425H68.4814V15.9196H66.2346V15.0033C65.3301 15.7191 64.2505 16.0771 63.0688 16.0771C59.9029 16.0771 57.6562 13.6863 57.6562 10.6226C57.6562 7.55893 59.9029 5.16814 63.0688 5.16814C64.2505 5.16814 65.3301 5.52604 66.2346 6.25616ZM66.2346 10.6226C66.2346 8.76149 65.0383 7.2583 63.0688 7.2583C61.0993 7.2583 59.9029 8.76149 59.9029 10.6083C59.9029 12.4551 61.0993 13.9583 63.0688 13.9583C65.0383 13.9583 66.2346 12.4694 66.2346 10.6226ZM72.6538 11.639C73.0186 13.0563 74.1565 13.9726 75.6884 13.9726C76.447 13.9726 77.1619 13.7721 77.7746 13.3283C77.8476 13.2854 77.9205 13.2281 77.9935 13.1566H80.7216L80.5611 13.4715C80.2985 13.9726 79.8463 14.445 79.4086 14.8029C78.3582 15.6619 77.0598 16.0627 75.6884 16.0627C72.5225 16.0627 70.2758 13.6719 70.2758 10.6083C70.2758 7.54462 72.5225 5.1395 75.6884 5.1395C76.8993 5.1395 78.0664 5.51172 79.0293 6.24185C79.715 6.77155 80.2548 7.44441 80.6049 8.21748C81.1447 9.3914 81.1301 10.3649 81.0718 11.6104H72.6538V11.639ZM72.683 9.53456H78.6937C78.2998 8.16021 77.1765 7.27261 75.6884 7.27261C74.2003 7.2583 73.0769 8.16021 72.683 9.53456ZM117.399 10.6226C117.399 8.77581 116.202 7.27261 114.233 7.27261C112.263 7.27261 111.067 8.77581 111.067 10.6226C111.067 12.4694 112.263 13.9726 114.233 13.9726C116.202 13.9726 117.399 12.4694 117.399 10.6226Z" fill="white"></path></symbol><symbol id="icon-category_washing" viewBox="0 0 32 32"><path fill="#5b819a" d="M4.153 0h23.691c.408.12.73.496.709.934.001 2.2.007 4.401-.004 6.601-8.368-.002-16.735-.002-25.102 0-.016-2.116.001-4.232-.008-6.349 0-.265-.001-.552.154-.781.126-.203.344-.32.559-.404zm3.683 2.534c-.529.09-.965.557-1.018 1.091-.057.461.168.94.557 1.191.43.292 1.044.272 1.452-.051a1.26 1.26 0 0 0 .443-1.354c-.166-.601-.821-1.004-1.433-.877zm4.125.004c-.605.11-1.064.716-1.001 1.329.034.672.686 1.225 1.354 1.152.684-.039 1.242-.716 1.142-1.396-.059-.708-.804-1.243-1.495-1.085zM3.445 9.143h25.108c.007 7.181-.001 14.363.004 21.544-.008.293.038.612-.112.879-.124.226-.364.349-.598.434H4.156c-.221-.078-.448-.189-.577-.395-.167-.252-.134-.568-.139-.856.007-7.202-.004-14.404.006-21.607zm11.706 4.141a7.088 7.088 0 0 0-4.732 2.633 7.057 7.057 0 0 0-1.53 4.584 7.084 7.084 0 0 0 10.504 6.011 7.098 7.098 0 0 0 3.391-4.289 7.104 7.104 0 0 0-.202-4.429 7.104 7.104 0 0 0-3.438-3.804 7.09 7.09 0 0 0-3.992-.705z" style="fill:var(--color14, #5b819a)"/><path fill="#5b819a" d="M19.189 21.304c.956.088 1.864-.31 2.706-.712-.143 1.511-.912 2.945-2.069 3.923a5.958 5.958 0 0 1-3.382 1.4 5.965 5.965 0 0 1-3.769-.962c-1.417-.928-2.426-2.483-2.627-4.171.476.48 1.056.944 1.764.967.75.04 1.402-.426 1.896-.944.256.435.609.827 1.073 1.041.757.38 1.707.316 2.413-.15.384-.238.677-.588.932-.955.277.304.648.532 1.065.563z" style="fill:var(--color14, #5b819a)"/></symbol></defs></svg>



